<?xml version="1.0" encoding="UTF-8" standalone="no"?>
<svg width="427px" height="386px" viewBox="0 0 427 386" version="1.1" xmlns="http://www.w3.org/2000/svg" xmlns:xlink="http://www.w3.org/1999/xlink">
    <!-- Generator: Sketch 3.6.1 (26313) - http://www.bohemiancoding.com/sketch -->
    <title>attendance</title>
    <desc>Created with Sketch.</desc>
    <defs></defs>
    <g id="Page-1" stroke="none" stroke-width="1" fill="none" fill-rule="evenodd">
        <g id="Smartix-Logo-Final-" transform="translate(-2807.000000, -4606.000000)">
            <g id="attendance" transform="translate(2811.000000, 4608.000000)">
                <g id="Head" transform="translate(14.000000, 45.000000)">
                    <g id="Group">
                        <path d="M35.8336605,244.795291 C40.9358445,251.262672 8.185784,292.570613 14.1687368,298.189225 C21.2989052,304.885193 67.3362403,275.702354 75.555515,281.028043 C100.785571,297.375888 130.73219,306.845772 162.850484,306.845772 C252.790322,306.845772 325.700967,232.587664 325.700967,140.985649 C325.700967,49.383633 252.790322,0.00454523014 162.850484,0.00454523014 C72.9106452,0.00454523014 0,49.383633 0,140.985649 C0,180.277107 13.4145819,216.377516 35.8336605,244.795291 L35.8336605,244.795291 Z" id="path-1"></path>
                        <g id="path-1-link" stroke="#000000" stroke-width="28">
                            <path d="M35.8336605,244.795291 C40.9358445,251.262672 8.185784,292.570613 14.1687368,298.189225 C21.2989052,304.885193 67.3362403,275.702354 75.555515,281.028043 C100.785571,297.375888 130.73219,306.845772 162.850484,306.845772 C252.790322,306.845772 325.700967,232.587664 325.700967,140.985649 C325.700967,49.383633 252.790322,0.00454523014 162.850484,0.00454523014 C72.9106452,0.00454523014 0,49.383633 0,140.985649 C0,180.277107 13.4145819,216.377516 35.8336605,244.795291 L35.8336605,244.795291 Z" id="path-1"></path>
                        </g>
                    </g>
                    <g id="smile-copy-3" transform="translate(103.000000, 203.000000)">
                        <path d="M60.4422372,21.1853912 L64.4832714,21.1853912 C66.987331,21.1853912 78.2194986,18.9284442 86.6443881,16.9254496 C95.3948495,14.8450536 111.461288,3.83996073 112.889746,2.87201252 C114.318203,1.90406432 114.861775,1.84705444 116.763709,0.837593111 C118.665641,-0.171869837 116.763709,0.837593111 116.763709,0.837593111 C120.117749,-0.377991279 122.314111,2.93864547 118.449904,8.8074526 C118.449904,8.8074526 111.358452,20.5905152 103.943604,27.3133574 C96.5287563,34.0361996 89.1139069,39.2650781 80.216087,42.2530087 C71.9179254,45.0395704 60.4421912,45.2409393 60.4421912,45.2409393 L60.4421895,21.1853912 L60.4422372,21.1853912 C60.4442312,21.1853912 60.446157,21.1853912 58.178053,21.1853912 C55.8438253,21.1853912 43.114524,19.0353447 34.2399911,16.9254496 C25.4895304,14.8450536 9.42309013,3.83996073 7.99463293,2.87201252 C6.56617558,1.90406432 6.02260345,1.84705444 4.12067097,0.837593111 C2.21873833,-0.171869837 4.12067097,0.837593111 4.12067097,0.837593111 C0.766629612,-0.377991279 -1.42973115,2.93864547 2.43447465,8.8074526 C2.43447465,8.8074526 9.52592631,20.5905152 16.9407746,27.3133574 C24.3556228,34.0361996 31.7704722,39.2650781 40.6682913,42.2530087 C48.9664536,45.0395704 60.4421879,45.2409393 60.4421879,45.2409393 L60.4421895,21.1853912 L60.4423021,21.1853912 L60.4422372,21.1853912 Z" id="path-2"></path>
                        <g id="path-2-link" fill="#000000">
                            <path d="M60.4422372,21.1853912 L64.4832714,21.1853912 C66.987331,21.1853912 78.2194986,18.9284442 86.6443881,16.9254496 C95.3948495,14.8450536 111.461288,3.83996073 112.889746,2.87201252 C114.318203,1.90406432 114.861775,1.84705444 116.763709,0.837593111 C118.665641,-0.171869837 116.763709,0.837593111 116.763709,0.837593111 C120.117749,-0.377991279 122.314111,2.93864547 118.449904,8.8074526 C118.449904,8.8074526 111.358452,20.5905152 103.943604,27.3133574 C96.5287563,34.0361996 89.1139069,39.2650781 80.216087,42.2530087 C71.9179254,45.0395704 60.4421912,45.2409393 60.4421912,45.2409393 L60.4421895,21.1853912 L60.4422372,21.1853912 C60.4442312,21.1853912 60.446157,21.1853912 58.178053,21.1853912 C55.8438253,21.1853912 43.114524,19.0353447 34.2399911,16.9254496 C25.4895304,14.8450536 9.42309013,3.83996073 7.99463293,2.87201252 C6.56617558,1.90406432 6.02260345,1.84705444 4.12067097,0.837593111 C2.21873833,-0.171869837 4.12067097,0.837593111 4.12067097,0.837593111 C0.766629612,-0.377991279 -1.42973115,2.93864547 2.43447465,8.8074526 C2.43447465,8.8074526 9.52592631,20.5905152 16.9407746,27.3133574 C24.3556228,34.0361996 31.7704722,39.2650781 40.6682913,42.2530087 C48.9664536,45.0395704 60.4421879,45.2409393 60.4421879,45.2409393 L60.4421895,21.1853912 L60.4423021,21.1853912 L60.4422372,21.1853912 Z" id="path-2"></path>
                        </g>
                    </g>
                    <g id="lefteye" transform="translate(75.891393, 92.290753)">
                        <ellipse id="path-3" cx="18.6413265" cy="30.6088565" rx="18.2710299" ry="30.1291126"></ellipse>
                        <g id="path-3-link" fill="#000000">
                            <ellipse id="path-3" cx="18.6413265" cy="30.6088565" rx="18.2710299" ry="30.1291126"></ellipse>
                        </g>
                    </g>
                    <g id="blink" transform="translate(185.600410, 89.059908)">
                        <path d="M43.1608413,18.8492465 C36.8057009,17.2635037 29.656168,17.2635035 29.656168,17.2635035 L29.6561696,0.539103267 C29.6561696,0.539103267 35.6188872,0.648914516 39.930559,2.16849896 C44.5538098,3.79789416 48.4065178,6.64933609 52.2592257,10.3154753 C56.1119337,13.9816145 57.3861619,16.8064616 57.3861619,16.8064616 C60.7252305,21.9955185 58.7588414,24.3193803 52.9471211,22.0872759 C52.9471211,22.0872759 49.5159833,20.4349892 43.1608413,18.8492465 L43.1608413,18.8492465 Z M16.1514947,18.8492465 C22.5066367,17.2635037 29.656168,17.2635035 29.656168,17.2635035 L29.656168,0.539103267 C29.656168,0.539103267 23.6934488,0.648914516 19.381777,2.16849896 C14.7585278,3.79789416 10.9058182,6.64933609 7.05311188,10.3154753 C3.20040392,13.9816145 1.92617571,16.8064616 1.92617571,16.8064616 C-1.41289289,21.9955185 0.553494612,24.3193803 6.3652149,22.0872759 C6.3652149,22.0872759 9.79635269,20.4349892 16.1514947,18.8492465 L16.1514947,18.8492465 Z" id="path-4"></path>
                        <g id="path-4-link" fill="#000000">
                            <path d="M43.1608413,18.8492465 C36.8057009,17.2635037 29.656168,17.2635035 29.656168,17.2635035 L29.6561696,0.539103267 C29.6561696,0.539103267 35.6188872,0.648914516 39.930559,2.16849896 C44.5538098,3.79789416 48.4065178,6.64933609 52.2592257,10.3154753 C56.1119337,13.9816145 57.3861619,16.8064616 57.3861619,16.8064616 C60.7252305,21.9955185 58.7588414,24.3193803 52.9471211,22.0872759 C52.9471211,22.0872759 49.5159833,20.4349892 43.1608413,18.8492465 L43.1608413,18.8492465 Z M16.1514947,18.8492465 C22.5066367,17.2635037 29.656168,17.2635035 29.656168,17.2635035 L29.656168,0.539103267 C29.656168,0.539103267 23.6934488,0.648914516 19.381777,2.16849896 C14.7585278,3.79789416 10.9058182,6.64933609 7.05311188,10.3154753 C3.20040392,13.9816145 1.92617571,16.8064616 1.92617571,16.8064616 C-1.41289289,21.9955185 0.553494612,24.3193803 6.3652149,22.0872759 C6.3652149,22.0872759 9.79635269,20.4349892 16.1514947,18.8492465 L16.1514947,18.8492465 Z" id="path-4"></path>
                        </g>
                    </g>
                </g>
                <g id="Hat" fill="#000000">
                    <path d="M377.660567,32.7059446 C381.247932,28.7415876 386.398885,28.7415878 389.576455,32.7059446 C392.754025,36.6703015 397.149895,106.22845 397.149895,106.22845 C397.629898,113.353186 392.195261,119.128925 384.98018,119.128925 L376.954908,119.128926 C369.753757,119.128926 364.637244,113.379478 365.541489,106.319527 C365.541489,106.319527 374.073201,36.6703015 377.660567,32.7059446 L377.660567,32.7059446 Z" id="Ponpon"></path>
                    <g id="Bottom" transform="translate(28.332828, 38.447054)">
                        <g id="path-5-link">
                            <path d="M246.139826,0.367609275 C246.139826,0.367609275 286.782104,44.0150789 290.332167,49.5077193 C293.90605,55.0372145 295.534122,60.4960046 295.534122,60.4960046 C297.894569,66.6854053 294.731401,69.9299954 288.420401,67.9562726 C288.420401,67.9562726 296.919722,70.4629004 285.085008,66.9571539 C279.518165,65.3081119 275.245312,64.2456419 256.318522,59.2734318 C237.391732,54.3012216 220.595585,53.9315193 211.573739,53.9315193 C187.112323,53.9315193 146.098788,75.6793108 111.348047,75.6793108 C76.5973053,75.6793108 63.1727812,51.5897096 41.7181762,59.2734318 C27.486508,64.3703414 9.52381842,71.6143232 9.52381842,71.6143232 C3.8804139,73.8593537 -0.515037517,70.7557072 0.239061135,64.725223 C0.239061135,64.725223 -1.15704585,58.3038085 6.83514121,48.1636336 C14.8273283,38.0234587 53.7101412,0.367609275 53.7101412,0.367609275 L246.139826,0.367609275 Z" id="path-5"></path>
                        </g>
                    </g>
                    <path d="M373.385695,22.614783 L389.252376,0 L56.1569633,0 L5.68434189e-14,53.9152542 L351.425078,53.9152542 L366.019911,33.1132372 C353.922835,29.2477983 335.092984,23.2992027 330.639084,22.2838588 C316.68543,19.102882 302.788911,17.2762502 289.590958,17.2762502 C275.324169,17.2762502 259.999905,19.4643207 240.464788,23.1184604 C223.794371,26.2367439 193.874735,38.1412866 193.874735,28.1260692 C193.874735,18.1108516 207.993672,16.8363161 225.43574,12.2686414 C242.877807,7.70096676 278.258062,4.75722831 289.590958,4.75722831 C299.390447,4.75722831 312.246092,5.20780665 332.893442,9.76483705 C346.059163,12.6706141 362.905623,18.6575459 373.385695,22.614783 L373.385695,22.614783 Z" id="Top" stroke="#000000" stroke-width="3"></path>
                </g>
                <path d="M263.644531,275.338663 C263.644531,267.058104 269.10811,264.260211 275.831502,269.077732 L325.516456,304.678556 L397.129379,236.224184 C403.117955,230.499738 407.972656,232.566256 407.972656,240.850752 L407.972656,281.232457 C407.972656,286.204078 404.977048,292.933388 401.286051,296.258942 L325.516456,364.526624 L268.512424,323.565235 C265.823961,321.633386 263.644531,317.385164 263.644531,314.067505 L263.644531,275.338663 Z" id="Rectangle-618" stroke="#FFFFFF" stroke-width="15" fill="#000000"></path>
            </g>
        </g>
    </g>
</svg>