<?xml version="1.0" encoding="UTF-8" standalone="no"?>
<svg
   xmlns:dc="http://purl.org/dc/elements/1.1/"
   xmlns:cc="http://creativecommons.org/ns#"
   xmlns:rdf="http://www.w3.org/1999/02/22-rdf-syntax-ns#"
   xmlns:svg="http://www.w3.org/2000/svg"
   xmlns="http://www.w3.org/2000/svg"
   version="1.1"
   id="svg2"
   viewBox="0 0 150 177.21419"
   height="177.21419"
   width="150">
  <g
     transform="translate(-3.9631617e-6,-875.14802)"
     id="layer1">
    <path
       d="m 146.33592,923.46495 c 0,55.15621 -29.67451,98.01745 -71.338891,124.53545 C 33.336609,1021.4824 3.6640864,978.62116 3.6640864,923.46495 l 142.6718336,0 z"
       style="fill:#ffffff;fill-opacity:1;fill-rule:nonzero;stroke:none"
       id="path8130" />
    <path
       d="m 103.16997,923.46495 43.16634,0 c 0,56.0241 -29.67648,98.33045 -71.338885,124.84845 C 33.337005,1021.7954 3.6644827,979.48905 3.6644827,923.46495 l 42.0586953,0"
       style="fill:none;stroke:#000000;stroke-width:5.14389753;stroke-linecap:square;stroke-linejoin:miter;stroke-miterlimit:4;stroke-dasharray:none;stroke-opacity:1"
       id="path8142" />
    <path
       d="m 146.33592,922.51601 c 0,1.50196 -0.0911,0.31704 -0.0991,0.94913 -1.03829,-0.52509 -2.29256,0 -3.53296,0 -4.65447,0 -7.66433,4.06399 -7.66433,8.29443 0,0.87383 0.15646,2.32427 0.41413,3.08713 -0.96696,-0.44979 -2.03695,-0.72918 -3.16441,-0.72918 -4.23638,0 -7.66631,3.43389 -7.66631,7.66631 0,1.43062 0.40224,2.75425 1.08188,3.89557 -1.1651,-0.71333 -2.52439,-1.14132 -3.9887,-1.14132 -4.86649,0 -7.66829,3.87575 -7.66829,8.53221 0,1.38108 0.1089,1.62282 0.75098,2.74632 -1.17501,-0.72522 -2.33615,-1.02244 -3.81433,-1.02244 -4.23639,0 -7.66235,4.29781 -7.66235,8.53023 0,1.26021 0.14267,1.69812 0.67965,2.74235 -1.03235,-0.52509 -2.03696,-0.53896 -3.27736,-0.53896 -4.236381,0 -7.664325,3.82821 -7.664325,8.05865 0,4.2344 3.427944,7.66432 7.664325,7.66432 1.1869,0 2.29851,-0.27938 3.30708,-0.76088 -0.54887,1.05414 -0.63605,1.85069 -0.63605,3.11883 0,4.22846 3.43388,7.66235 7.66432,7.66235 1.33552,0 2.32031,0.0613 3.4121,-0.53698 -0.88572,1.23248 -0.58057,2.36984 -0.58057,3.76282 0,4.2344 4.06201,7.0362 8.29443,7.0362 0.5667,0 1.09774,-0.4201 1.62877,-0.535 -6.12274,9.2297 -13.92181,18.6397 -21.92101,26.31 1.55942,-1.4346 3.55476,-3.5766 3.55476,-5.8652 0,-4.3275 -3.50919,-7.8367 -7.836717,-7.8367 -2.084507,0 -3.443796,0.087 -4.848658,1.4128 1.09179,-1.3217 1.735768,-3.0475 1.735768,-4.9002 0,-4.2324 -3.431907,-7.6564 -7.664329,-7.6564 -1.852675,0 -3.548813,0.6301 -4.872436,1.7298 0.836181,-1.2245 1.329567,-2.7304 1.329567,-4.33146 0,-3.96096 -1.583195,-7.7 -8.294436,-7.7 -3.87972,0 -6.87174,3.65581 -6.87174,7.6247 0,1.59706 0.491404,3.10096 1.329567,4.32756 -1.327586,-1.0938 -3.019762,-1.7318 -4.872437,-1.7318 -4.234402,0 -7.664328,3.4259 -7.664328,7.6584 0,1.8566 0.640015,3.5745 1.73775,4.91 -1.404863,-1.3355 -3.316982,-2.1281 -5.407434,-2.1281 -4.323569,0 -7.830772,3.5053 -7.830772,7.8308 0,2.2866 1.127457,5.2212 2.686875,6.6558 -7.999197,-7.6703 -15.168158,-16.1332 -21.288921,-25.3629 0.531034,0.1189 1.53564,0.2953 2.098378,0.2953 4.234402,0 7.664328,-3.42598 7.664328,-7.66435 0,-1.39693 -0.402239,-2.71263 -1.058105,-3.84207 1.095753,0.59841 2.322283,0.93526 3.655813,0.93526 4.23044,0 7.662347,-3.43587 7.662347,-7.66631 0,-1.27013 -0.324961,-2.45901 -0.869866,-3.51315 1.002624,0.4815 2.118192,0.76088 3.303112,0.76088 4.236384,0 7.668291,-3.42992 7.668291,-7.66432 0,-4.23044 -3.431907,-7.66631 -7.668291,-7.66631 -1.236438,0 -2.403524,0.33486 -3.43587,0.85401 0.536978,-1.03829 0.842125,-2.18953 0.842125,-3.44974 0,-4.23242 -3.429926,-7.66235 -7.664329,-7.66235 -1.480158,0 -2.879076,0.45178 -4.050126,1.177 0.640015,-1.1235 0.984791,-2.38768 0.984791,-3.76876 0,-4.23242 -3.431907,-7.67027 -7.664328,-7.67027 -1.466288,0 -2.827559,0.42998 -3.990682,1.15123 0.679645,-1.15123 1.079902,-2.46891 1.079902,-3.89953 0,-4.23044 -3.429926,-7.66631 -7.664329,-7.66631 -1.30777,0 -2.552134,0.37846 -3.634017,0.95705 0.572645,-1.07198 0.883736,-2.24897 0.883736,-3.5508 0,-4.23044 -3.431907,-8.92652 -7.6663099,-8.92652 -1.2344562,0 -2.49269,-0.52509 -3.5309806,0 -0.025759,-1.99534 -0.097092,1.4643 -0.097092,-0.94913 l 43.9252406,0 c -1.075938,2.18755 -1.876452,3.15054 -1.876452,4.98736 0,4.23242 3.431907,7.66235 7.664328,7.66235 1.587158,0 3.033631,-0.47753 4.254217,-1.30381 -0.731162,1.17303 -1.186901,2.56997 -1.186901,4.05607 0,4.23639 3.431908,7.66433 7.664329,7.66433 1.672361,0 3.21989,-0.53698 4.480105,-1.44845 -0.788625,1.20473 -1.254271,2.6512 -1.254271,4.19675 0,4.23837 3.429926,7.67226 7.662347,7.67226 4.234403,0 7.664328,-3.43389 7.664328,-7.67226 0,-1.54555 -0.422053,-2.92069 -1.216623,-4.12542 1.11755,0.62813 2.443154,1.06405 3.814331,1.06405 4.234403,0 7.664329,-3.43191 7.664329,-7.67027 0,-1.15322 -0.219944,-2.26284 -0.6737,-3.24565 1.218604,0.82627 2.072618,0.8124 3.657794,0.8124 4.234402,0 7.270012,-3.42993 7.270012,-7.66235 0,-1.83682 -0.95903,-2.79981 -2.031,-4.98736 l 45.18942,0 z"
       style="fill:#000000;fill-opacity:1;fill-rule:nonzero;stroke:none"
       id="path8154" />
    <path
       id="path8158"
       d="m 104.19435,933.57395 c -0.87383,0 -1.66295,0.48173 -1.99385,2.23534 -0.65785,3.47748 -1.90134,5.14971 -3.322058,6.46144 -1.034328,0.94913 -2.482656,0.97514 -2.993875,0.9474 -0.513201,-0.0298 -1.026402,-0.0561 -1.238419,1.21984 -0.215981,1.28201 0.537105,2.52936 0.969066,3.09606 0.420071,0.56274 0.686825,0.40355 1.170304,0.0309 0.972902,-0.74702 2.027044,-1.93628 2.873132,-3.15488 0.86194,-1.24238 1.35978,-0.65004 0.75543,0.56657 -0.602365,1.21662 -1.843876,2.9425 -2.777148,3.86387 -0.681626,0.67172 -0.545903,1.10468 -0.27246,1.60995 0.271461,0.5033 1.115821,1.30901 1.393227,1.51706 0.26948,0.20409 1.384541,0.86294 2.117701,-0.56966 0.72324,-1.42468 1.29785,-4.10277 1.38703,-5.20447 0.0911,-1.06603 0.814,-0.89439 0.90713,0.0309 0.0436,0.4498 0.0247,0.62344 0.0247,1.8143 0,1.18888 -0.36124,2.70494 -0.93191,4.16727 -0.57464,1.45638 -0.061,1.54344 0.33127,1.75546 0.39431,0.20805 0.81599,0.32508 1.60065,0.32508 0.78666,0 1.20746,-0.11698 1.60375,-0.32508 0.39432,-0.21202 0.90901,-0.29908 0.33438,-1.75546 -0.57661,-1.46233 -0.9412,-2.97839 -0.9412,-4.16727 0,-1.19086 -0.0127,-1.3645 0.0309,-1.8143 0.0891,-0.92534 0.81513,-1.09699 0.91024,-0.0309 0.0853,1.1017 0.6638,3.77979 1.38703,5.20447 0.7272,1.4326 1.84315,0.77375 2.11461,0.56966 0.27345,-0.20805 1.11977,-1.01376 1.39321,-1.51706 0.27147,-0.50527 0.41117,-0.93823 -0.27244,-1.60995 -0.93327,-0.92138 -2.17393,-2.64723 -2.78026,-3.86387 -0.60633,-1.21661 -0.10842,-1.80895 0.75544,-0.56657 0.84212,1.2186 1.90308,2.40786 2.87004,3.15488 0.49338,0.37252 0.75445,0.5317 1.1765,-0.0309 0.42403,-0.5667 1.18219,-1.81405 0.97216,-3.09606 -0.214,-1.27606 -0.84907,-1.5422 -1.36227,-1.57589 -0.84213,-0.0574 -2.31447,-0.006 -3.34682,-0.95048 -1.42071,-1.30975 -2.18854,-2.62483 -2.84837,-6.10231 -0.32892,-1.75361 -1.12113,-2.23534 -1.99696,-2.23534 z m -58.707252,0.47368 c -0.879773,0 -1.666052,0.47779 -1.996958,2.23535 -0.657848,3.47749 -1.904431,5.15146 -3.325145,6.45527 -1.028384,0.94714 -2.480691,0.98132 -2.993876,0.95358 -0.515198,-0.0298 -1.02442,-0.0582 -1.238435,1.21984 -0.208038,1.28003 0.547013,2.52934 0.969066,3.09604 0.424035,0.56472 0.689061,0.40341 1.176502,0.0309 0.966958,-0.74305 2.027045,-1.93826 2.873133,-3.15488 0.861939,-1.24436 1.35978,-0.6571 0.755431,0.56348 -0.604348,1.22257 -1.844986,2.94868 -2.780241,3.87007 -0.681625,0.66775 -0.543921,1.10157 -0.27246,1.60684 0.273443,0.50726 1.116678,1.30505 1.390137,1.51707 0.271461,0.20211 1.391357,0.86404 2.114593,-0.56658 0.725219,-1.42468 1.30208,-4.10277 1.393228,-5.20447 0.08528,-1.06999 0.816857,-0.89351 0.904042,0.0279 0.04359,0.4498 0.03091,0.62257 0.03091,1.81739 0,1.1869 -0.360374,2.70867 -0.935001,4.16109 -0.576608,1.46034 -0.06103,1.55224 0.331271,1.75237 0.394312,0.21598 0.815129,0.33436 1.603754,0.33436 0.784663,0 1.207207,-0.11842 1.597557,-0.33436 0.396294,-0.20013 0.910985,-0.29203 0.334377,-1.75237 -0.576608,-1.45242 -0.935016,-2.97419 -0.935,-4.16109 0,-1.19482 -0.01427,-1.36759 0.03091,-1.81739 0.08909,-0.92138 0.814875,-1.09786 0.904042,-0.0279 0.08924,1.1017 0.666883,3.77979 1.39012,5.20447 0.7272,1.43062 1.844258,0.76869 2.117701,0.56658 0.271461,-0.21202 1.118659,-1.00981 1.39012,-1.51707 0.273443,-0.50527 0.4072,-0.93909 -0.272444,-1.60684 -0.935254,-0.92139 -2.171945,-2.6475 -2.780257,-3.87007 -0.602367,-1.22058 -0.108426,-1.80784 0.755432,-0.56348 0.846088,1.21662 1.903084,2.41183 2.870041,3.15488 0.489423,0.37252 0.755559,0.53383 1.179593,-0.0309 0.424035,-0.5667 1.181084,-1.81601 0.969066,-3.09604 -0.212017,-1.27805 -0.843979,-1.54022 -1.359162,-1.57589 -0.844106,-0.0574 -2.318447,-0.003 -3.34683,-0.95048 -1.422696,-1.31372 -2.193615,-2.62483 -2.851463,-6.10232 -0.332887,-1.75756 -1.118041,-2.23535 -1.993851,-2.23535 z m 52.936224,2.26631 c -0.600386,0 -0.65463,0.59222 -0.414872,1.28178 0.235795,0.68359 0.595186,1.33426 0.712093,1.90096 0.118888,0.56868 0.26948,0.83607 0.743051,0.26937 l 0.06816,-0.01 c 0.386386,-0.62614 0.774753,-1.34814 1.040273,-2.24773 0.25957,-0.89166 0.17151,-1.19508 -0.690425,-1.19508 l -1.458235,0 z m 9.749458,0 c -0.81241,0 -0.89588,0.30342 -0.65018,1.19508 0.24372,0.89959 0.60956,1.62159 0.97217,2.24774 l 0.0682,0.01 c 0.44979,0.5667 0.59081,0.29931 0.69971,-0.26937 0.11492,-0.5667 0.45103,-1.21737 0.67493,-1.90096 0.22193,-0.68955 0.16868,-1.28178 -0.39009,-1.28178 l -1.37465,0 z m -68.462905,0.47061 c -0.594442,0 -0.650668,0.59926 -0.414873,1.28485 0.239758,0.68757 0.595424,1.3334 0.718275,1.90408 0.116986,0.5647 0.266389,0.83184 0.739961,0.26316 l 0.07117,-0.006 c 0.388368,-0.62417 0.777608,-1.34728 1.037181,-2.25083 0.263536,-0.89166 0.171516,-1.19506 -0.690424,-1.19506 l -1.461326,0 z m 9.752544,0 c -0.816366,0 -0.893897,0.3034 -0.650176,1.19506 0.2477,0.90356 0.610674,1.62667 0.975264,2.25083 l 0.06816,0.006 c 0.449794,0.56868 0.586674,0.30155 0.699697,-0.26316 0.110962,-0.57068 0.445958,-1.21651 0.671845,-1.90408 0.225888,-0.68559 0.166697,-1.28485 -0.390096,-1.28485 l -1.374649,0 z m 25.536211,25.35663 c -0.87581,0 -1.664071,0.47382 -1.996958,2.23535 -0.65983,3.47748 -1.90134,5.14066 -3.322054,6.45834 -1.030365,0.94716 -2.479565,0.97823 -2.990784,0.95049 -0.517164,-0.0317 -1.027512,-0.0571 -1.241511,1.22295 -0.213999,1.28201 0.545016,2.52513 0.96905,3.08985 0.420072,0.57067 0.687079,0.40657 1.176503,0.0341 0.966957,-0.75097 2.025934,-1.94047 2.870041,-3.16106 0.863921,-1.2404 1.35978,-0.65376 0.755432,0.57277 -0.60633,1.21663 -1.841896,2.94558 -2.77715,3.86696 -0.681626,0.66379 -0.543922,1.0965 -0.272461,1.60376 0.273443,0.50527 1.119785,1.31409 1.393228,1.52016 0.267498,0.2041 1.384303,0.85896 2.111503,-0.56968 0.723236,-1.42467 1.300098,-4.10275 1.393227,-5.20445 0.08528,-1.06603 0.814876,-0.89439 0.904042,0.0309 0.04359,0.44187 0.03091,0.6254 0.03091,1.81429 0,1.1869 -0.364337,2.70694 -0.935,4.16728 -0.576608,1.45242 -0.06293,1.54542 0.33127,1.75546 0.394312,0.20607 0.81402,0.32509 1.600663,0.32509 0.788626,0 1.21117,-0.11905 1.597557,-0.32509 0.394313,-0.21004 0.913204,-0.30304 0.340559,-1.75546 -0.574626,-1.46034 -0.941198,-2.98038 -0.941198,-4.16728 0,-1.18889 -0.01617,-1.37242 0.0279,-1.81429 0.09321,-0.92534 0.820202,-1.09699 0.913331,-0.0309 0.08925,1.1017 0.664046,3.77978 1.393228,5.20445 0.723236,1.42864 1.842894,0.77378 2.108411,0.56968 0.273443,-0.20607 1.120641,-1.01489 1.390121,-1.52016 0.275424,-0.50726 0.410291,-0.93997 -0.269353,-1.60376 -0.937236,-0.92138 -2.17789,-2.65033 -2.780257,-3.86696 -0.612275,-1.22653 -0.106366,-1.81317 0.755431,-0.57277 0.846088,1.22059 1.901974,2.41009 2.866951,3.16106 0.491404,0.37252 0.759521,0.53662 1.179593,-0.0341 0.427997,-0.56472 1.181083,-1.80784 0.969066,-3.08985 -0.208055,-1.28003 -0.844852,-1.54642 -1.356071,-1.58209 -0.844107,-0.0534 -2.318701,-0.003 -3.353029,-0.95049 -1.420714,-1.30579 -2.182582,-2.62172 -2.848356,-6.0992 -0.328924,-1.76153 -1.118041,-2.23535 -1.993851,-2.23535 z m -5.774132,2.7369 c -0.59246,0 -0.652649,0.59816 -0.414873,1.28177 0.237777,0.68757 0.593205,1.3365 0.712093,1.90716 0.120949,0.55877 0.26948,0.83383 0.743052,0.26317 l 0.07435,-0.01 c 0.388368,-0.62615 0.772535,-1.34529 1.034089,-2.25082 0.263536,-0.89365 0.172626,-1.19199 -0.687332,-1.19199 l -1.461327,0 z m 9.749453,0 c -0.812403,0 -0.898715,0.29834 -0.647069,1.19199 0.243721,0.90553 0.610658,1.62468 0.975248,2.25082 l 0.06499,0.01 c 0.445831,0.57067 0.588734,0.29561 0.699697,-0.26317 0.114925,-0.57066 0.449048,-1.21959 0.674936,-1.90716 0.227869,-0.6836 0.168679,-1.28177 -0.390096,-1.28177 l -1.37774,0 z M 103.72376,991.34 c -0.87978,0 -1.66407,0.47668 -1.99696,2.23226 -0.65983,3.47945 -1.902214,5.15034 -3.318965,6.45214 -1.034328,0.9511 -2.485747,0.9875 -2.996967,0.9598 -0.515182,-0.032 -1.030364,-0.065 -1.238419,1.2167 -0.212017,1.2801 0.541925,2.5285 0.965959,3.0992 0.426017,0.5627 0.69017,0.3972 1.179609,0.025 0.964961,-0.747 2.023938,-1.9312 2.870026,-3.1518 0.861937,-1.2443 1.361757,-0.652 0.755432,0.5666 -0.60633,1.2166 -1.843006,2.9456 -2.780241,3.867 -0.681626,0.6697 -0.543922,1.0965 -0.272461,1.6037 0.273443,0.5053 1.119785,1.3141 1.393228,1.5202 0.267498,0.206 1.382321,0.862 2.111499,-0.5666 0.72522,-1.4267 1.3001,-4.1019 1.39323,-5.2075 0.0892,-1.0661 0.814,-0.8905 0.90713,0.031 0.0436,0.4537 0.0309,0.6273 0.0309,1.8142 0,1.1949 -0.36743,2.7129 -0.9381,4.1673 -0.57859,1.4604 -0.061,1.5494 0.33127,1.7555 0.39432,0.21 0.81711,0.3251 1.60376,0.3251 0.78664,0 1.20721,-0.1151 1.59756,-0.3251 0.39629,-0.2061 0.91296,-0.2951 0.33437,-1.7555 -0.57066,-1.4544 -0.935,-2.9724 -0.935,-4.1673 0,-1.1869 -0.0162,-1.3605 0.0279,-1.8142 0.0892,-0.9214 0.81798,-1.097 0.90715,-0.031 0.0892,1.1056 0.66603,3.7808 1.39323,5.2075 0.72522,1.4286 1.844,0.7726 2.1115,0.5666 0.27344,-0.2061 1.12175,-1.0149 1.39321,-1.5202 0.27344,-0.5072 0.40918,-0.934 -0.27244,-1.6037 -0.93724,-0.9214 -2.17479,-2.6504 -2.77715,-3.867 -0.60831,-1.2186 -0.11049,-1.8109 0.75543,-0.5666 0.84609,1.2206 1.89998,2.4048 2.86693,3.1518 0.48943,0.3725 0.75247,0.538 1.17651,-0.025 0.42403,-0.5707 1.18504,-1.8191 0.96906,-3.0992 -0.21003,-1.282 -0.84485,-1.5402 -1.35607,-1.5759 -0.84609,-0.063 -2.32154,-5e-4 -3.34992,-0.95044 -1.4227,-1.30777 -2.18854,-2.62284 -2.84837,-6.1023 -0.33091,-1.7556 -1.11804,-2.23226 -1.99385,-2.23226 z m -57.289281,0.4737 c -0.877776,0 -1.666037,0.47779 -1.996942,2.23535 -0.657849,3.47748 -1.904447,5.1455 -3.325162,6.45525 -1.030364,0.9471 -2.478693,0.9833 -2.993875,0.9536 -0.513201,-0.036 -1.026402,-0.063 -1.238419,1.2167 -0.212018,1.282 0.545031,2.5342 0.969066,3.093 0.424035,0.5706 0.68906,0.4066 1.176502,0.034 0.968939,-0.7451 2.025063,-1.9363 2.873132,-3.1549 0.863922,-1.2424 1.357799,-0.6602 0.755432,0.5604 -0.604348,1.2225 -1.843021,2.9487 -2.780257,3.87 -0.677663,0.6718 -0.543906,1.1047 -0.272444,1.61 0.271461,0.5033 1.116677,1.3059 1.39012,1.5139 0.273443,0.2081 1.390501,0.8643 2.117701,-0.5603 0.725218,-1.4366 1.297863,-4.109 1.38703,-5.2107 0.09115,-1.07 0.817966,-0.8916 0.907133,0.028 0.04359,0.4518 0.03091,0.6254 0.03091,1.8143 0,1.1928 -0.3615,2.71 -0.938108,4.1704 -0.574626,1.4563 -0.06103,1.5443 0.33127,1.7523 0.394313,0.2081 0.8222,0.3251 1.606846,0.3251 0.78666,0 1.206351,-0.117 1.600664,-0.3251 0.394313,-0.208 0.905897,-0.296 0.331286,-1.7523 -0.574627,-1.4604 -0.935016,-2.9776 -0.935016,-4.1704 0,-1.1889 -0.0176,-1.3625 0.0279,-1.8143 0.08909,-0.9194 0.819964,-1.0978 0.907149,-0.028 0.08924,1.1017 0.667993,3.7741 1.393211,5.2107 0.725218,1.4246 1.842023,0.7684 2.111503,0.5603 0.271461,-0.208 1.119784,-1.0106 1.393227,-1.5139 0.271462,-0.5053 0.409166,-0.9382 -0.27246,-1.61 -0.935254,-0.9213 -2.173911,-2.6475 -2.780241,-3.87 -0.602367,-1.2206 -0.105256,-1.8028 0.758523,-0.5604 0.840143,1.2186 1.901102,2.4098 2.870041,3.1549 0.485461,0.3725 0.754449,0.5366 1.176502,-0.034 0.424035,-0.5588 1.177977,-1.811 0.965959,-3.093 -0.212017,-1.28 -0.84287,-1.5422 -1.356071,-1.5759 -0.842125,-0.063 -2.321538,-4e-4 -3.349921,-0.9535 -1.420715,-1.30979 -2.19249,-2.61867 -2.848356,-6.09615 -0.332887,-1.75756 -1.116076,-2.23535 -1.993867,-2.23535 z m 51.515145,2.2632 c -0.598404,0 -0.65685,0.59222 -0.421055,1.28178 0.245703,0.6836 0.599387,1.3334 0.718275,1.90406 0.120949,0.56274 0.266627,0.83209 0.746159,0.26936 l 0.06816,-0.0159 c 0.382424,-0.6202 0.773646,-1.3422 1.037185,-2.24773 0.25957,-0.88968 0.17238,-1.19199 -0.693518,-1.19199 l -1.455145,0 z m 9.749456,0 c -0.81241,0 -0.89785,0.30231 -0.65016,1.19199 0.2457,0.90553 0.61462,1.62753 0.97525,2.24773 l 0.062,0.0159 c 0.44979,0.56273 0.5939,0.29338 0.7028,-0.26936 0.11492,-0.57066 0.45301,-1.22046 0.67494,-1.90406 0.2239,-0.68956 0.16644,-1.28178 -0.3963,-1.28178 l -1.36845,0 z m -67.038718,0.4737 c -0.596422,0 -0.656612,0.59619 -0.414872,1.28177 0.233813,0.68956 0.593205,1.33824 0.712093,1.90098 0.118888,0.56867 0.267498,0.83804 0.743051,0.26935 l 0.07117,-0.006 c 0.388368,-0.62812 0.77252,-1.35545 1.034074,-2.25702 0.261554,-0.89166 0.174623,-1.18888 -0.687317,-1.18888 l -1.458235,0 z m 9.749454,0 c -0.812403,0 -0.895878,0.29722 -0.650176,1.18888 0.247684,0.90157 0.610673,1.6289 0.975264,2.25703 l 0.06816,0.006 c 0.447813,0.56868 0.586849,0.29931 0.699713,-0.26936 0.114926,-0.56274 0.447939,-1.21142 0.671846,-1.90097 0.221924,-0.68559 0.168678,-1.28178 -0.390112,-1.28178 l -1.374634,0 z"
       style="fill:#ffffff;fill-opacity:1;fill-rule:nonzero;stroke:none" />
    <path
       id="path8216"
       style="fill:#b7133f;fill-opacity:1;fill-rule:nonzero;stroke:none"
       d="m 3.6640912,878.81211 142.6718288,0 0,44.50581 -142.6718288,0 0,-44.50581 z" />
    <path
       id="path8226"
       style="fill:none;stroke:#000000;stroke-width:5.32817459;stroke-linecap:butt;stroke-linejoin:miter;stroke-miterlimit:4;stroke-dasharray:none;stroke-opacity:1"
       d="m 3.6640912,878.81211 142.6718288,0 0,44.50581 -142.6718288,0 0,-44.50581 z" />
    <g
       transform="matrix(1.5851765,0,0,1.5851765,-137.86705,310.08873)"
       id="g8784">
      <path
         id="path8238"
         style="fill:#ffffff;fill-opacity:1;fill-rule:nonzero;stroke:none"
         d="m 106.33203,367.01793 c 0,-1.6575 1.3425,-3.00125 3,-3.00125 l 7.42375,0 0,2.89625 1.205,0 c 0.535,0 0.97125,0.435 0.97125,0.97 0,0.53625 -0.43625,0.97125 -0.97125,0.97125 l -1.205,0 0,6.70125 1.205,0 c 0.535,0 0.97125,0.43625 0.97125,0.97125 0,0.53625 -0.43625,0.97 -0.97125,0.97 l -1.205,0 0,3.13375 -9.005,0 c -0.2525,0.5275 -0.79375,0.89375 -1.41875,0.89375 -0.6275,0 -1.165,-0.36625 -1.42125,-0.89375 l -9.0025,0 0,-3.13375 -1.205,0 c -0.53875,0 -0.97125,-0.43375 -0.97125,-0.97 0,-0.535 0.4325,-0.97125 0.97125,-0.97125 l 1.205,0 0,-6.70125 -1.205,0 c -0.53875,0 -0.97125,-0.435 -0.97125,-0.97125 0,-0.535 0.4325,-0.97 0.97125,-0.97 l 1.205,0 0,-2.89625 7.4225,0 c 1.6575,0 3.00125,1.34375 3.00125,3.00125" />
      <path
         id="path8242"
         style="fill:none;stroke:#000000;stroke-width:0.44750002;stroke-linecap:butt;stroke-linejoin:miter;stroke-miterlimit:4;stroke-dasharray:none;stroke-opacity:1"
         d="m 106.33203,367.01793 c 0,-1.6575 1.3425,-3.00125 3,-3.00125 l 7.42375,0 0,2.89625 1.205,0 c 0.535,0 0.97125,0.435 0.97125,0.97 0,0.53625 -0.43625,0.97125 -0.97125,0.97125 l -1.205,0 0,6.70125 1.205,0 c 0.535,0 0.97125,0.43625 0.97125,0.97125 0,0.53625 -0.43625,0.97 -0.97125,0.97 l -1.205,0 0,3.13375 -9.005,0 c -0.2525,0.5275 -0.79375,0.89375 -1.41875,0.89375 -0.6275,0 -1.165,-0.36625 -1.42125,-0.89375 l -9.0025,0 0,-3.13375 -1.205,0 c -0.53875,0 -0.97125,-0.43375 -0.97125,-0.97 0,-0.535 0.4325,-0.97125 0.97125,-0.97125 l 1.205,0 0,-6.70125 -1.205,0 c -0.53875,0 -0.97125,-0.435 -0.97125,-0.97125 0,-0.535 0.4325,-0.97 0.97125,-0.97 l 1.205,0 0,-2.89625 7.4225,0 c 1.6575,0 3.00125,1.34375 3.00125,3.00125 z m 0,0 0,11.35375" />
      <path
         id="path8246"
         style="fill:#000000;fill-opacity:1;fill-rule:nonzero;stroke:none"
         d="m 109.55378,370.41281 c 0.0175,0.29375 0.11125,0.35 0.40625,0.35 0.29625,0 0.36875,0 0.49625,-0.22125 0.13,-0.22125 0.60875,-0.77375 0.60875,0 l 0,1.03125 c 0,0.7725 -0.545,0.27625 -0.645,0 -0.0887,-0.24125 -0.16375,-0.26875 -0.46,-0.26875 -0.295,0 -0.425,0.0288 -0.4425,0.32375 -0.0562,1.0225 -0.0562,1.9525 0,2.4675 0.02,0.2025 0.11,0.295 0.35,0.295 l 0.58875,0 c 0.9025,0 1.0875,-0.53375 1.235,-1.1225 0.22125,-0.8875 0.58875,-0.75625 0.58875,-0.0188 l 0,1.3625 c 0,0.44125 -0.4225,0.24 -0.645,0.2275 l -2.81,0.004 c -0.27125,0 -0.37625,0.002 -0.6475,0.0225 -0.27,0.0162 -0.31375,-0.20375 -0.14625,-0.35125 0.16875,-0.1475 0.225,-0.16375 0.23125,-0.73625 l 0,-5.11875 c -0.006,-0.57375 -0.0625,-0.59125 -0.23125,-0.73875 -0.1675,-0.14625 -0.12375,-0.36875 0.14625,-0.34875 0.27125,0.0175 0.37625,0.0175 0.6475,0.0175 l 2.6275,0 c 0.22125,-0.0138 0.64375,-0.215 0.64375,0.2275 l 0,1.36 c 0,0.425 -0.4425,0.5725 -0.59125,-0.0163 -0.14625,-0.59 -0.14625,-1.1975 -1.04875,-1.1975 l -0.58875,0 c -0.24,0 -0.3,0.0913 -0.31375,0.29375 -0.055,0.90375 -0.0275,1.67625 0,2.15625" />
      <path
         id="path8250"
         style="fill:none;stroke:#000000;stroke-width:0.44750002;stroke-linecap:butt;stroke-linejoin:miter;stroke-miterlimit:4;stroke-dasharray:none;stroke-opacity:1"
         d="m 97.527153,379.33968 1.6775,-1.49125 m 8.546247,2.7825 c 0.1,-0.2075 0.15625,-0.4375 0.15625,-0.6825 0,-0.87125 -0.705,-1.5775 -1.575,-1.5775 -0.87125,0 -1.5775,0.70625 -1.5775,1.5775 0,0.245 0.0563,0.475 0.15625,0.6825 m 1.18125,-2.25 c -0.14625,-0.29375 -0.645,-0.5325 -1.4175,-0.5325 l -5.469997,0 0,-13.7225 -0.42625,0 -1.25125,1.29 0,13.92375 7.331247,0 m 1.7125,-0.95875 c 0.14875,-0.29375 0.645,-0.5325 1.41875,-0.5325 l 5.47,0 0,-13.7225 0.42375,0 1.25125,1.29 0,13.92375 -7.33,0 m 7.33,0 -1.675,-1.49125" />
      <path
         id="path8254"
         style="fill:#000000;fill-opacity:1;fill-rule:nonzero;stroke:none"
         d="m 103.08053,374.27531 c -0.12125,0.465 -0.29375,0.77 -0.5975,0.77 -0.30375,0 -0.3875,-0.3225 -0.50875,-0.79 l -1.29125,-5.59625 c -0.1225,-0.57375 -0.18875,-0.59125 -0.39,-0.73875 -0.2,-0.14625 -0.205,-0.36875 0.075,-0.34875 0.28,0.0175 0.38625,0.0175 0.66125,0.0175 0.275,0 0.3825,0 0.65625,-0.0175 0.2725,-0.02 0.36,0.2025 0.2225,0.34875 -0.13875,0.1475 -0.195,0.165 -0.0775,0.73875 l 0.74875,3.53875 c 0.11875,0.6 0.39875,0.4525 0.52875,0.005 l 1.0875,-3.54375 c 0.09,-0.57375 -0.1,-0.59125 -0.2075,-0.73875 -0.1075,-0.14625 -0.0375,-0.36875 0.17125,-0.34875 0.21,0.0175 0.29125,0.0175 0.505,0.0175 0.21375,0 0.295,0 0.51125,-0.0175 0.21625,-0.02 0.22125,0.2475 0.0663,0.395 -0.15625,0.1475 -0.20875,0.1325 -0.43875,0.6925 l -1.7225,5.61625 z" />
    </g>
    <g
       transform="matrix(1.5851765,0,0,1.5851765,-137.86705,310.08873)"
       id="g8791">
      <path
         id="path8258"
         style="fill:#ffffff;fill-opacity:1;fill-rule:nonzero;stroke:none"
         d="m 133.58728,381.52393 c 0.625,0 1.16375,-0.36625 1.41625,-0.89375 l 8.05,0 0,-3.1325 1.20375,0 c 0.5375,0 0.97125,-0.435 0.97125,-0.97125 0,-0.535 -0.43375,-0.97125 -0.97125,-0.97125 l -1.20375,0 0,-6.70125 1.20375,0 c 0.5375,0 0.97125,-0.435 0.97125,-0.97 0,-0.53625 -0.43375,-0.97125 -0.97125,-0.97125 l -1.20375,0 0,-2.89625 -6.4675,0 c -1.65875,0 -2.99875,1.34375 -2.99875,3.00125 0,-1.6575 -1.345,-3.00125 -3.00125,-3.00125 l -7.42375,0 0,2.89625 -1.20375,0 c -0.53875,0 -0.97125,0.435 -0.97125,0.97125 0,0.535 0.4325,0.97 0.97125,0.97 l 1.20375,0 0,6.70125 -1.20375,0 c -0.53875,0 -0.97125,0.43625 -0.97125,0.97125 0,0.53625 0.4325,0.97125 0.97125,0.97125 l 1.20375,0 0,3.1325 9.005,0 c 0.25375,0.5275 0.7925,0.89375 1.42,0.89375" />
      <path
         id="path8262"
         style="fill:none;stroke:#000000;stroke-width:0.44750002;stroke-linecap:butt;stroke-linejoin:miter;stroke-miterlimit:4;stroke-dasharray:none;stroke-opacity:1"
         d="m 133.58728,381.52393 c 0.625,0 1.16375,-0.36625 1.41625,-0.89375 l 8.05,0 0,-3.1325 1.20375,0 c 0.5375,0 0.97125,-0.435 0.97125,-0.97125 0,-0.535 -0.43375,-0.97125 -0.97125,-0.97125 l -1.20375,0 0,-6.70125 1.20375,0 c 0.5375,0 0.97125,-0.435 0.97125,-0.97 0,-0.53625 -0.43375,-0.97125 -0.97125,-0.97125 l -1.20375,0 0,-2.89625 -6.4675,0 c -1.65875,0 -2.99875,1.34375 -2.99875,3.00125 0,-1.6575 -1.345,-3.00125 -3.00125,-3.00125 l -7.42375,0 0,2.89625 -1.20375,0 c -0.53875,0 -0.97125,0.435 -0.97125,0.97125 0,0.535 0.4325,0.97 0.97125,0.97 l 1.20375,0 0,6.70125 -1.20375,0 c -0.53875,0 -0.97125,0.43625 -0.97125,0.97125 0,0.53625 0.4325,0.97125 0.97125,0.97125 l 1.20375,0 0,3.1325 9.005,0 c 0.25375,0.5275 0.7925,0.89375 1.42,0.89375 z m 1.41875,-0.8925 c 0.1,-0.2075 0.15625,-0.43875 0.15625,-0.6825 0,-0.87125 -0.70625,-1.5775 -1.575,-1.5775 -0.87,0 -1.5775,0.70625 -1.5775,1.5775 0,0.24375 0.0575,0.475 0.1575,0.6825 m 1.18,-2.25 c -0.15,-0.295 -0.64375,-0.5325 -1.4175,-0.5325 l -5.47125,0 0,-13.7225 -0.42375,0 -1.2525,1.29 0,13.92375 7.33125,0 m -7.33125,0 1.67625,-1.49125 m 7.12875,-10.83125 0,11.35375 m 0.24,0.01 c 0.145,-0.295 0.6425,-0.5325 1.41625,-0.5325 l 4.51375,0 0,-13.7225 0.42125,0 1.25375,1.29 0,13.92375 -6.37375,0 m 6.37375,0 -1.675,-1.49125" />
      <path
         id="path8266"
         style="fill:#000000;fill-opacity:1;fill-rule:nonzero;stroke:none"
         d="m 129.23028,369.43168 0.01,1.08625 c 0,0.185 0.12875,0.35 0.515,0.35 0.38625,0 1.235,-0.22125 1.235,-1.41875 0,-1.19625 -0.60875,-1.38125 -0.97875,-1.4375 -0.36625,-0.055 -0.78125,-0.0362 -0.78125,0.5725 l 0,0.8475 z m -0.6725,5.47 c -0.23875,0 -0.515,0 -0.755,0.0175 -0.23875,0.0188 -0.2775,-0.20125 -0.12875,-0.35 0.1475,-0.145 0.31375,-0.16625 0.31375,-0.73625 l 0,-5.36 c 0,-0.23875 -0.0187,-0.3675 -0.22125,-0.53375 -0.2025,-0.165 0.055,-0.3675 0.34875,-0.3675 0.29375,0 1.14375,0.0175 1.62125,0.0175 1.91625,0 2.54125,0.645 2.54125,1.7675 0,0.8475 -0.52375,1.38 -1.14125,1.64 -0.175,0.0737 -0.23,0.1925 -0.23,0.285 0,0.0925 0.0162,0.13875 0.1,0.2775 0.0838,0.13625 1.24375,2.42875 1.4,2.6425 0.1575,0.2125 0.25,0.30375 0.35875,0.38625 0.07,0.0513 0.0662,0.3225 -0.32125,0.3225 l -1.01125,0 c 0,0 -0.0662,0.0175 -0.185,-0.18375 -0.12,-0.2025 -1.50125,-3.14125 -1.63,-3.3525 l -0.39625,-0.0463 -0.0112,2.505 c 0,0.57 0.16125,0.55375 0.32875,0.69875 0.1675,0.1475 0.11875,0.40625 -0.15625,0.3875 -0.2725,-0.0175 -0.55125,-0.0175 -0.825,-0.0175" />
      <path
         id="path8270"
         style="fill:#000000;fill-opacity:1;fill-rule:nonzero;stroke:none"
         d="m 137.6569,373.88831 c 0.005,0.57125 0.0625,0.58875 0.2275,0.7375 0.16875,0.14625 0.12875,0.3675 -0.14625,0.34875 -0.27125,-0.0163 -0.37625,-0.0163 -0.6475,-0.0163 -0.26875,0 -0.37375,0 -0.6475,0.0163 -0.26875,0.0188 -0.31125,-0.2025 -0.14375,-0.34875 0.1675,-0.14875 0.22625,-0.16625 0.23,-0.7375 l 0,-5.12 c -0.004,-0.5725 -0.0625,-0.58875 -0.23,-0.73625 -0.1675,-0.14875 -0.125,-0.36875 0.14375,-0.35125 0.27375,0.02 0.37875,0.02 0.6475,0.02 0.27125,0 0.37625,0 0.6475,-0.02 0.275,-0.0175 0.315,0.2025 0.14625,0.35125 -0.165,0.1475 -0.2225,0.16375 -0.2275,0.73625 l 0,5.12 z" />
    </g>
    <g
       transform="matrix(1.5851765,0,0,1.5851765,-137.86705,310.08873)"
       id="g8797">
      <path
         id="path8274"
         style="fill:#ffffff;fill-opacity:1;fill-rule:nonzero;stroke:none"
         d="m 160.92715,366.21518 c 0.34,-1.27625 1.51,-2.19875 2.9025,-2.19875 l 8.7475,0 0,2.89625 1.205,0 c 0.5375,0 0.9725,0.435 0.9725,0.97125 0,0.535 -0.435,0.97 -0.9725,0.97 l -1.205,0 0,6.70125 1.205,0 c 0.5375,0 0.9725,0.43625 0.9725,0.97125 0,0.53625 -0.435,0.97125 -0.9725,0.97125 l -1.205,0 0,3.1325 -10.3275,0 c -0.25375,0.5275 -0.7925,0.89375 -1.42,0.89375 -0.62625,0 -1.165,-0.36625 -1.42125,-0.89375 l -9.88625,0 0,-3.1325 -1.20875,0 c -0.53375,0 -0.96875,-0.435 -0.96875,-0.97125 0,-0.535 0.435,-0.97125 0.96875,-0.97125 l 1.20875,0 0,-6.70125 -1.20875,0 c -0.53375,0 -0.96875,-0.435 -0.96875,-0.97 0,-0.53625 0.435,-0.97125 0.96875,-0.97125 l 1.20875,0 0,-2.89625 8.30625,0 c 1.39,0 2.5625,0.9225 2.9025,2.19875 l 0.19625,0 z" />
      <path
         id="path8278"
         style="fill:none;stroke:#000000;stroke-width:0.44750002;stroke-linecap:butt;stroke-linejoin:miter;stroke-miterlimit:4;stroke-dasharray:none;stroke-opacity:1"
         d="m 160.92715,366.21518 c 0.34,-1.27625 1.51,-2.19875 2.9025,-2.19875 l 8.7475,0 0,2.89625 1.205,0 c 0.5375,0 0.9725,0.435 0.9725,0.97125 0,0.535 -0.435,0.97 -0.9725,0.97 l -1.205,0 0,6.70125 1.205,0 c 0.5375,0 0.9725,0.43625 0.9725,0.97125 0,0.53625 -0.435,0.97125 -0.9725,0.97125 l -1.205,0 0,3.1325 -10.3275,0 c -0.25375,0.5275 -0.7925,0.89375 -1.42,0.89375 -0.62625,0 -1.165,-0.36625 -1.42125,-0.89375 l -9.88625,0 0,-3.1325 -1.20875,0 c -0.53375,0 -0.96875,-0.435 -0.96875,-0.97125 0,-0.535 0.435,-0.97125 0.96875,-0.97125 l 1.20875,0 0,-6.70125 -1.20875,0 c -0.53375,0 -0.96875,-0.435 -0.96875,-0.97 0,-0.53625 0.435,-0.97125 0.96875,-0.97125 l 1.20875,0 0,-2.89625 8.30625,0 c 1.39,0 2.5625,0.9225 2.9025,2.19875 l 0.19625,0 z m -9.78375,13.125 1.67375,-1.49125 m 9.43375,2.7825 c 0.1,-0.2075 0.15375,-0.43875 0.15375,-0.6825 0,-0.87125 -0.705,-1.5775 -1.575,-1.5775 -0.87125,0 -1.575,0.70625 -1.575,1.5775 0,0.24375 0.0538,0.475 0.15375,0.6825 m 1.18125,-2.25 c -0.1475,-0.295 -0.645,-0.5325 -1.41625,-0.5325 l -6.35625,0 0,-13.7225 -0.4225,0 -1.25125,1.29 0,13.92375 8.21,0 m 1.7175,-0.95875 c 0.14375,-0.295 0.64125,-0.5325 1.41625,-0.5325 l 6.79375,0 0,-13.7225 0.42625,0 1.25375,1.29 0,13.92375 -8.6575,0 m 8.6575,0 -1.68,-1.49125" />
      <path
         id="path8282"
         style="fill:#000000;fill-opacity:1;fill-rule:nonzero;stroke:none"
         d="m 160.2939,370.18756 c 0.25125,-0.87 0.41375,-0.90125 0.60375,0.06 l 0.3575,1.47125 c 0.1275,0.36875 0.0913,0.4425 -0.6025,0.4425 -0.88875,0 -0.945,-0.0613 -0.78375,-0.43125 l 0.425,-1.5425 z m 1.22875,2.6375 0.235,0.96375 c 0.11625,0.57 0.0587,0.5875 -0.0788,0.73625 -0.1375,0.1475 -0.05,0.36875 0.225,0.35 0.27,-0.0188 0.45125,-0.0188 0.7275,-0.0188 0.27625,0 0.3075,0 0.58875,0.0188 0.28125,0.0187 0.23125,-0.33625 0.1,-0.4325 -0.20125,-0.1475 -0.20625,-0.27375 -0.34375,-0.65375 l -1.5825,-5.6 c -0.125,-0.46625 -0.30125,-0.775 -0.41,-0.7525 -0.34375,0.08 -0.75625,0.17125 -0.73375,0.4025 l 0.0275,0.6025 -1.6025,5.3475 c -0.23125,0.55625 -0.285,0.5425 -0.43875,0.68875 -0.15375,0.14875 -0.15,0.41625 0.065,0.3975 0.215,-0.0188 0.2975,-0.0188 0.5125,-0.0188 0.21,0 0.29125,0 0.505,0.0188 0.2075,0.0187 0.2775,-0.2025 0.17,-0.35 -0.1075,-0.14875 -0.29875,-0.16625 -0.2075,-0.73625 l 0.33125,-1.0375 c 0.0813,-0.22875 0.62,-0.14875 0.89375,-0.14875 0.27625,0 0.9025,-0.10625 1.01625,0.2225" />
      <path
         id="path8286"
         style="fill:#000000;fill-opacity:1;fill-rule:nonzero;stroke:none"
         d="m 156.14953,367.63218 c 0.37,0 0.815,-0.0175 1.45125,-0.0562 0.88875,-0.0563 0.9075,0 0.9075,0.2575 0,0.17 0.02,0.92125 0.02,1.12375 0,0.2025 -0.02,0.535 -0.215,0.535 -0.19,0 -0.27,-0.2225 -0.385,-0.535 -0.32625,-0.885 -0.65625,-1.01375 -0.88875,-1.01375 -0.23375,0 -0.2975,0.185 -0.2975,0.665 l 0,5.11875 c 0.005,0.57125 0.0637,0.58875 0.24,0.73875 0.17625,0.145 0.13125,0.40375 -0.15375,0.385 -0.28625,-0.0188 -0.39375,-0.0188 -0.67875,-0.0188 -0.285,0 -0.395,0 -0.68,0.0188 -0.2825,0.0188 -0.3275,-0.24 -0.1525,-0.385 0.17875,-0.15 0.23875,-0.1675 0.24375,-0.73875 l 0,-5.11875 c 0,-0.48 -0.065,-0.665 -0.29875,-0.665 -0.23125,0 -0.5625,0.12875 -0.89,1.01375 -0.115,0.3125 -0.19,0.535 -0.385,0.535 -0.1925,0 -0.2125,-0.3325 -0.2125,-0.535 0,-0.2025 0.02,-0.95375 0.02,-1.12375 0,-0.2575 0.0187,-0.31375 0.90875,-0.2575 0.63625,0.0387 1.07875,0.0562 1.44625,0.0562" />
      <path
         id="path8290"
         style="fill:#000000;fill-opacity:1;fill-rule:nonzero;stroke:none"
         d="m 164.12603,373.10168 c 0,-0.6725 0.43,-0.58 0.66375,0.0913 0.21875,0.6275 0.535,1.41875 1.38125,1.41875 0.8475,0 1.03,-0.97625 1.03,-1.455 0,-0.755 -0.31,-1.0125 -1.47375,-1.8775 -1.1575,-0.86625 -1.41625,-1.42 -1.41625,-2.1025 0,-0.68 0.66125,-1.74875 1.73,-1.74875 0.52375,0 0.7875,0.045 1.05875,0.25 0.0387,0.0275 0.3975,0.0537 0.47,-0.0462 0.10875,-0.1475 0.33125,0.0362 0.33125,0.23875 0,0.2025 0,1.0875 0.0188,1.39875 0.0175,0.31375 -0.3625,0.54 -0.55,-0.0175 -0.2225,-0.6425 -0.3725,-1.51125 -1.18,-1.51125 -0.6925,0 -0.865,0.8225 -0.865,1.14375 0,0.88375 0.8825,1.1775 1.83875,1.89625 0.96,0.71875 1.20875,1.03125 1.20875,2.02625 0,1.0875 -1.03,2.21 -2.1825,2.21 -0.4975,0 -0.905,-0.285 -1.30875,-0.285 -0.4025,0 -0.37875,0.1475 -0.525,0.1475 -0.14625,0 -0.3025,-0.12 -0.2675,-0.3775 0.0375,-0.2575 0.0375,-1.005 0.0375,-1.4" />
    </g>
  </g>
</svg>
