<?xml version="1.0" encoding="UTF-8" standalone="no"?>
<svg width="221px" height="301px" viewBox="0 0 221 301" version="1.1" xmlns="http://www.w3.org/2000/svg" xmlns:xlink="http://www.w3.org/1999/xlink">
    <!-- Generator: Sketch 3.6.1 (26313) - http://www.bohemiancoding.com/sketch -->
    <title>sample-school-logo</title>
    <desc>Created with Sketch.</desc>
    <defs></defs>
    <g id="Page-1" stroke="none" stroke-width="1" fill="none" fill-rule="evenodd">
        <g id="Artboard-2" transform="translate(-762.000000, -1819.000000)">
            <g id="sample-school-logo" transform="translate(875.500000, 1965.000000) scale(-1, -1) translate(-875.500000, -1965.000000) translate(625.000000, 1715.000000)">
                <rect id="Rectangle-56" x="0.710140489" y="0" width="500" height="500"></rect>
                <g id="lion" transform="translate(249.358771, 246.000000) rotate(-180.000000) translate(-249.358771, -246.000000) translate(131.499320, 96.000000)">
                    <g id="g8017" transform="translate(39.724503, 161.677440)">
                        <path d="M84.515769,3.8666 C64.0445272,6.3909 47.7920571,14.62509 46.4811815,31.75339 C45.3655448,46.31662 56.5740283,49.41154 56.7268975,58.23099 C56.8269537,64.00828 46.5722863,70.88089 34.969645,84.24613 C31.4636993,84.30423 25.6256284,88.44713 23.5902902,88.48103 C22.0643833,88.50893 21.1321498,86.61434 18.6185111,86.65615 C16.5644745,86.69215 13.7247082,88.37362 12.7322023,89.23893 C11.507757,88.45199 8.47165776,87.72738 6.78054869,88.26001 C3.57884947,89.26841 0.546629149,94.18568 0.597850767,97.14495 C0.670456167,101.32447 5.65725364,102.45953 7.58985026,101.11054 C7.96113239,104.50985 13.1243709,105.99705 15.3683751,103.87019 L33.7977143,103.17328 C34.9912277,104.13503 45.1464356,109.35198 43.9242779,107.68695 C42.9055147,106.2994 44.4029762,102.11382 46.9114431,101.91587 C48.6497954,102.56264 49.0193867,102.71236 49.7106299,103.39394 C50.8146298,103.61904 52.0595638,102.97419 52.619421,102.08081 C52.5786426,99.74094 53.0064178,97.23725 51.388113,94.45507 C53.9861928,90.35459 57.2203158,86.71201 61.5798225,84.61129 C62.6220581,90.3676 67.136821,92.71174 72.7572747,90.90233 C70.4135127,89.22444 69.4224987,86.39226 69.0816512,82.61418 C70.3591084,86.52766 75.6016161,87.44701 78.3997089,85.84016 C75.0070475,83.29603 74.5689286,80.68787 72.9188963,77.60915 C75.3102994,82.66668 79.6283315,84.25926 82.9432156,82.22785 C78.0345932,76.79542 81.8069908,77.04503 76.7158603,73.17713 C82.4318945,69.53827 89.3625275,66.04865 88.9215243,58.72202 C87.1595007,55.83488 82.2418275,58.71902 81.4850405,55.41236 C79.9560504,48.72762 85.4461127,43.79506 87.8880412,42.12065 C92.4099651,39.02065 99.6301246,39.03822 104.279655,38.96108 L108.174985,38.89628 L107.465441,0.41682 L84.515769,3.8665 L84.515769,3.8666 Z" id="path4050-9-6-5-7-3-2" stroke="#000000" stroke-width="1.29999995" fill="#EAC102"></path>
                        <path d="M18.0826235,96.41057 C16.7442972,97.68114 14.7854432,99.37783 14.6951341,103.30896 C14.6105935,107.03188 18.8497543,110.74411 22.8694081,110.67731 C28.1155958,110.59021 34.289044,107.48063 33.9473013,99.78878 L18.0826235,96.41057 Z" id="path4266-9-3-3-7-2" stroke="#000000" stroke-width="1.29999995" fill="#EAC102"></path>
                        <path d="M7.59014864,101.13923 C7.24084704,97.56373 9.30373554,91.80406 12.7608466,89.2162" id="path4274-1-0-6-6-6" stroke="#000000" stroke-width="1.29999995" fill="#EAC102"></path>
                        <path d="M22.6493043,100.23683 C23.0493302,102.15515 25.1869128,102.86625 26.0212781,104.54649 C25.5497408,108.49926 23.8116869,112.08593 20.7372958,114.21042 C17.9828657,111.73801 16.9452052,106.58434 18.0287165,103.45044 C19.296924,102.11404 21.3607076,101.40297 22.6493043,100.23683 L22.6493043,100.23683 Z" id="path4354-7-3-5-7-9" stroke="#000000" stroke-width="1.29999995" fill="#ED1C24"></path>
                        <path d="M47.1431836,100.29899 C46.7928874,101.24116 43.3584531,102.95863 41.7591451,104.75399 C43.9335276,108.31052 44.7481005,110.01372 46.0631534,113.42495 C48.7306559,110.86256 50.9005628,106.48989 49.709138,103.39372 C48.7392094,102.43862 47.4761738,101.38572 47.1431836,100.29899 L47.1431836,100.29899 Z" id="path4370-2-2-4-1-9" stroke="#000000" stroke-width="1.29999995" fill="#ED1C24"></path>
                        <path d="M13.7279903,101.29143 C13.2582434,104.34167 10.8317311,106.09103 9.43541985,108.00533 C7.49466756,105.74548 7.3346373,102.31412 8.43336587,100.34706 C10.1922068,98.61613 12.7044531,98.98782 13.7279903,101.29143 L13.7279903,101.29143 Z" id="path4378-1-3-2-2-5" stroke="#000000" stroke-width="1.29999995" fill="#ED1C24"></path>
                        <path d="M5.61209905,99.71669 C4.2152905,102.1767 2.71305494,103.06942 2.03593499,104.99718 C0.782845348,102.79422 0.19971458,98.85532 2.32784848,97.64379 C3.93451647,97.1464 5.30964286,98.12722 5.61209905,99.71669 L5.61209905,99.71669 Z" id="path4386-4-9-8-3-6" stroke="#000000" stroke-width="1.29999995" fill="#ED1C24"></path>
                        <path id="path4414-8-6-6-1-4" stroke="#000000" stroke-width="1.29999995" fill="#EAC102" d="M34.8828169,84.24703 C37.2122567,84.20653 39.1766804,84.35874 40.74625,84.33193"></path>
                        <path d="M51.848113,90.85726 C51.3934838,91.80096 50.8450644,93.423 51.3866211,94.45384" id="path4418-3-3-5-5-1" stroke="#000000" stroke-width="1.29999995" fill="#EAC102"></path>
                        <path d="M76.8183036,51.85555 C75.6167339,58.60299 77.9656678,60.57747 80.1481066,62.77846 C77.2316571,70.56176 72.3668963,69.22928 66.3761552,74.49303 C71.1139062,69.55472 75.6852615,69.37648 78.5750559,63.04676 C77.1183727,61.75507 74.4928421,59.20701 76.8183036,51.85555 L76.8183036,51.85555 Z" id="path4278_239-1-5-9-0-1" fill="#000000"></path>
                        <path d="M68.6138934,16.4047 C55.6250857,20.15922 53.355421,25.24164 55.9609602,38.82446 C54.6601301,27.61423 55.5707808,21.96656 68.6138934,16.4047 L68.6138934,16.4047 Z" id="path4246_240-8-1-9-3-1" fill="#000000"></path>
                        <path d="M107.904554,28.89059 C97.306354,28.39187 85.0845776,31.73222 81.2061562,37.97242 C87.3398207,31.44436 101.248927,30.055 108.014258,30.17976 L107.904256,28.89059 L107.904554,28.89059 Z" id="path4066_241-9-8-4-9-1" fill="#000000"></path>
                    </g>
                    <path d="M155.71889,175.22884 C141.419108,173.37645 138.261966,157.23629 120.48896,163.74569 C136.53167,171.71118 134.218542,173.59533 144.324219,186.78017 L162.999322,185.56862 L155.71889,175.22883 L155.71889,175.22884 Z" id="path9062-2-1-5-8-5-4" stroke="#000000" stroke-width="1.29999995" fill="#EAC102"></path>
                    <g id="g8067" transform="translate(94.427202, 79.677440)">
                        <path d="M80.8314925,76.13244 C67.9899842,60.06695 61.354348,48.83704 61.6780885,33.30195 C61.9102268,22.16302 65.8750784,12.74262 65.9452968,1.02955 L15.6559124,0.03708 L2.46559982,16.13695 C-3.39634137,34.76086 4.36955211,53.6548 16.2471988,65.36941 C28.8370747,77.78653 47.2160874,89.06902 49.7743834,102.0209 C52.3052286,114.83339 36.527379,132.57233 47.6467468,148.79298 C55.8780111,160.80057 77.8587489,156.86441 81.990394,165.36256 C86.0122359,171.59688 85.1405732,183.20424 79.3711293,192.51589 C77.4251057,192.47089 73.96332,194.88768 73.96332,194.88768 C73.96332,194.88768 71.6310953,193.81981 68.9641896,193.75881 C66.5410589,193.70321 63.9009078,194.73393 63.1910657,195.57794 C62.2477922,193.73717 59.2647049,193.40827 57.8460152,193.49323 C55.95917,193.60605 50.2777477,194.57021 48.9619986,200.62663 C48.7625824,208.77755 57.3207699,209.34059 57.7161212,205.75406 C58.384986,213.10454 68.028475,213.84298 70.0220403,209.4676 C70.7630132,214.47928 73.4635363,215.7693 76.9328809,216.37651 C80.7828568,217.05035 86.3336888,213.85905 87.4735936,208.59453 C88.9878638,212.04095 93.0122916,213.81539 97.5898134,212.20289 C104.561324,209.74709 103.92727,203.19387 99.6920879,195.99387 C101.149268,193.61867 100.957709,193.21867 103.338868,186.05328 C105.554029,186.58187 113.843577,186.76164 115.506439,182.66451 C112.443784,182.67251 108.982098,179.55001 106.654349,178.32589 C112.168679,180.94919 114.649695,178.89938 117.47325,175.53066 C114.736126,175.07739 109.652355,174.18066 107.287309,171.16132 C113.47498,175.28336 116.732675,173.56234 118.395537,169.46521 C117.061985,169.43361 114.54576,169.61044 112.997574,168.63892 C111.44919,167.66734 109.255611,163.95011 106.507945,163.96466 C106.755101,160.59309 110.765008,150.70463 106.130794,147.32152 C97.7567064,158.01336 83.6122793,139.94096 82.380474,134.71904 C81.2538968,124.02939 88.52488,113.67309 86.2944023,102.67745 C93.4356905,101.29631 89.6481751,87.16257 80.8314925,76.13244 L80.8314925,76.13244 Z" id="path4074-4-6-0-3-7-5" stroke="#000000" stroke-width="1.29999995" fill="#EAC102"></path>
                        <path d="M40.7524165,40.30061 C43.001692,53.12477 51.8048481,55.78863 59.1116368,67.49319" id="path4082-7-3-3-0-4-1" stroke="#000000" stroke-width="1.29999995" fill="#EAC102"></path>
                        <path d="M76.6790603,82.57566 C82.1470427,88.87579 85.690584,96.43479 86.2944023,102.67745" id="path4086-7-9-6-8-7-6" stroke="#000000" stroke-width="1.29999995" fill="#EAC102"></path>
                        <path d="M70.0209462,209.46534 C70.4976554,206.16136 70.4232597,205.57303 72.0419623,203.42506 C73.1792811,201.91691 76.5071944,200.40608 77.5381911,199.96161" id="path4258-9-4-9-9-7" stroke="#000000" stroke-width="1.29999995" fill="#EAC102"></path>
                        <path d="M57.7150271,205.75344 C57.6623136,202.11766 60.7821577,197.76215 63.1900711,195.57704" id="path4262-1-9-1-6-4" stroke="#000000" stroke-width="1.29999995" fill="#EAC102"></path>
                        <path id="path4270-0-5-8-9-0" stroke="#000000" stroke-width="1.29999995" fill="#EAC102" d="M87.4735936,208.59453 C88.3245936,206.77816 87.8090936,204.6902 87.6723936,202.93075"></path>
                        <path d="M99.2952446,208.4809 C99.6409657,213.33665 99.4960533,214.93875 95.7868125,218.9015 C95.0621509,216.23189 93.570657,210.9754 93.8887283,208.7528 C95.219993,206.65602 97.7683431,206.45209 99.2952446,208.48078 L99.2952446,208.4809 Z" id="path4314-7-1-4-2-6" stroke="#000000" stroke-width="1.29999995" fill="#ED1C24"></path>
                        <path d="M64.7022526,205.382 C64.7151823,206.15226 65.8657292,208.60023 65.8402676,210.1187 C64.1047002,212.67814 62.7527479,215.74757 61.453509,217.98891 C59.0880649,215.52329 59.1608692,207.57128 61.0227501,205.79534 C62.3143306,205.34396 63.5702051,205.23289 64.7022526,205.382 L64.7022526,205.382 Z" id="path4322-3-0-4-9-1" stroke="#000000" stroke-width="1.29999995" fill="#ED1C24"></path>
                        <path d="M54.3210728,202.30462 C54.3051593,202.95038 55.1871657,205.04443 55.1104825,206.31578 C53.5685626,208.40182 52.3284027,210.92666 51.1619422,212.76058 C49.2639575,210.61248 49.5992353,203.94737 51.2226125,202.52187 C52.3197497,202.1897 53.377302,202.13913 54.3207744,202.30506 L54.3210728,202.30462 Z" id="path4330-8-6-9-5-3" stroke="#000000" stroke-width="1.29999995" fill="#ED1C24"></path>
                        <path d="M76.3351296,207.85132 C77.323856,209.39977 78.4054775,210.17462 79.0584288,211.63273 C78.5230386,214.98301 76.9200506,217.97764 74.2320594,219.68288 C71.9706499,217.48617 71.262797,213.06413 72.2920034,210.43189 C72.853452,209.22028 73.9027492,207.91684 76.3351296,207.85132 L76.3351296,207.85132 Z" id="path4362-5-5-7-1-4" stroke="#000000" stroke-width="1.29999995" fill="#ED1C24"></path>
                        <path d="M97.2872578,166.77402 C98.1663799,163.18593 98.7237506,160.74418 98.414929,159.51486 C97.8500988,157.2709 96.3353313,156.76432 93.5753315,153.81331 C96.1250741,155.62705 99.8513224,156.50387 100.507854,158.15498 C101.391253,160.37646 97.5415756,166.19058 97.2872578,166.77402 L97.2872578,166.77402 Z" id="path4242_238-3-9-1-0-5" fill="#000000"></path>
                        <path d="M51.7952005,121.21403 C48.5925067,131.12478 47.5869717,146.01339 60.0372064,151.34428 C49.7624483,141.52918 51.211473,135.29955 51.7952005,121.21403 L51.7952005,121.21403 Z" id="path4238_242-2-5-1-4-1" fill="#000000"></path>
                    </g>
                    <g id="g12488-7-6-7-0" transform="translate(54.005944, 78.305129) rotate(-7.414809) translate(-54.005944, -78.305129) translate(4.773515, 39.805129)" stroke="#000000" stroke-width="1.3016807">
                        <path d="M41.2099457,6.11901204 C41.9090845,6.84084677 44.3205909,8.77633598 44.4902044,11.2848793 C44.6365478,13.6196682 43.6978661,16.1134061 41.0347267,16.0374235 C40.3893678,16.0318366 39.9689538,15.7496953 39.5790495,15.3256453 C39.2434422,14.9328823 39.1153529,14.1996502 39.0036355,13.6130198 C38.9736429,12.4074664 39.7593259,11.643506 40.3417933,10.8175304 C41.2420275,9.54091092 41.0311224,6.60580352 41.2099457,6.11901204 L41.2099457,6.11901204 Z" id="path12490-3-8-3-8" fill="#ED1C24"></path>
                        <path d="M29.9977148,0.0788420255 C30.1521769,0.968285441 29.9211302,4.01083001 28.9699343,5.39455143 C28.4538024,6.70407808 28.1096834,7.63911106 28.0011617,7.99969321 C27.9365224,10.0014996 29.8722991,12.5242338 31.7385651,10.9777643 C37.0274516,5.76708967 30.8566419,0.521328951 29.9977148,0.0788420255 L29.9977148,0.0788420255 Z" id="path12492-7-2-5-4" fill="#ED1C24"></path>
                        <path d="M32.4361474,18.8194483 C32.3353101,18.5361896 33.0091102,16.8863615 33.2242298,15.9388137 C33.4078055,15.127029 33.8856192,14.2487595 34.142108,13.6699509 C34.4885747,12.887777 35.0946328,12.6464205 35.6619074,12.3112031 C36.0683594,12.0704053 37.0415688,12.5045118 37.6626233,12.392214 C38.2102475,12.2916488 39.0676232,13.6151987 39.3623785,13.8006856 C39.8644966,14.11579 40.4483189,14.5917986 41.1226361,14.9443355 C41.7850597,15.2912855 42.6284734,15.7008094 43.1631698,16.0365855 C43.8111142,16.4433159 44.3483961,17.070731 44.677798,17.6707701 C45.0630483,18.3724918 44.9710019,19.0870635 44.9782416,19.9072287 C44.984964,20.6860504 44.7439887,21.5358264 44.5619644,22.3392307 C44.3349512,23.3387371 43.8710995,23.6571936 43.2976195,24.352211 C42.6786335,25.1019805 42.0420656,25.2103674 41.2467436,25.6807891 C41.090575,25.7729739 40.9354407,25.8646 40.7797892,25.9567848 C40.2662946,26.2607152 40.0429011,26.4612869 39.6917804,26.6009608 L32.4361474,18.8194483 Z" id="path12494-0-5-9-0" fill="#EAC102"></path>
                        <path d="M95.5625024,50.506317 L71.7244616,40.1229031 C65.8337522,37.5570376 58.9573296,34.957818 55.1552558,32.976013 C52.8996026,31.8002939 47.3781749,28.8739022 44.2941043,27.3542501 C40.6991245,25.5982698 34.5728695,23.202583 33.2609501,17.9692812 C32.6424812,15.5048749 35.3381989,13.3058489 33.1523561,9.32514268 L31.4122659,10.05871 L29.9359041,8.36418622 L28.2309777,6.51043418 L28.8453097,5.55674077 C26.1356299,3.13814746 21.4226487,4.24212999 20.8641651,7.43228194 C18.7634083,5.94017357 17.0731214,5.4305873 14.5651835,6.39986832 C12.2076225,7.31104499 11.1171005,8.88572858 9.43748168,10.7865787 C8.46131953,11.8912875 7.73824355,13.4794915 7.69635728,15.0980327 C7.52420988,16.7123278 7.91245941,18.5506599 8.72386889,19.8666115 L9.70276657,19.7934224 C8.49739344,20.7224773 7.53300082,21.6623151 6.98384078,22.3550976 C4.96665483,24.8996768 4.67710693,30.4140584 7.74097909,32.9802591 C8.80106374,34.1395525 10.685284,34.7854605 12.0344357,35.0251409 C15.4101589,35.5771321 18.6731511,39.3729101 21.7251607,37.1437146 C22.7847282,38.6672776 21.5389995,36.3431038 23.2434088,37.0029233 C23.1554993,37.1236016 23.0706925,37.2420451 23.0127757,37.3604885 C25.4570206,41.1087774 28.6887792,43.8863885 32.3894623,46.0863642 C35.672772,48.0382232 41.0490973,50.5517948 40.6515862,52.9989374 C40.3793255,54.6748567 35.8378453,59.2880063 34.4607694,58.6304216 C39.1498806,61.7195055 46.6220398,56.8931576 48.1899309,57.2188771 C45.2198633,60.3639423 44.6243801,66.3593608 46.5574471,69.5989573 C48.0971347,66.8668241 51.8487432,64.160279 54.1630425,63.4815756 C55.8666761,65.7037874 57.5986372,64.5895249 59.6984994,65.1303981 C58.0824805,66.8598962 56.4508292,74.6569405 58.0783488,76.9603866 C59.6260724,74.0808694 64.7792472,68.7016922 65.9541313,69.1045117 C68.5805557,70.0330638 84.5403007,77.2605179 86.0818189,76.928094 L98.1542283,58.5160007 L95.5625024,50.506317 Z" id="path12496-5-7-8-2" fill="#EAC102"></path>
                        <path d="M0.630981014,29.2475019 C1.14033876,29.0469302 1.88447681,29.0402259 3.97103367,28.9988824 C5.07300459,28.9765346 7.95595391,29.6486454 9.29010922,29.3033715 C11.068983,28.8430063 12.681863,25.3764118 11.0141688,23.8908401 C6.71177652,20.09171 0.847651973,28.3396216 0.630981014,29.2475019 L0.630981014,29.2475019 Z" id="path12498-2-7-4-8" fill="#ED1C24"></path>
                        <path d="M5.32692847,7.27350065 C6.46406317,7.74280496 8.55889386,9.52280919 9.74256887,11.7486525 C10.4897993,13.1677394 12.8069892,14.2354067 14.0785736,12.9805763 C16.5555519,10.5575135 15.44479,7.88415495 12.960055,6.6170333 C11.7179461,5.98347248 8.79676651,5.77898989 7.37056483,6.22929855 C7.02564948,6.31366159 5.93143528,6.8472159 5.32692847,7.27350065 L5.32692847,7.27350065 Z" id="path12501-2-2-7-6" fill="#ED1C24"></path>
                        <path d="M20.8238302,7.27640587 C21.017231,7.63620584 21.6579358,8.44072752 21.8771924,9.07317096 C22.0524942,9.57990788 22.4491209,10.0737948 22.5959815,10.4967274 C22.8984934,11.3699686 23.2056594,12.257736 23.5014489,13.1103055 C23.6824389,13.6332445 23.7558692,14.2003206 23.9115206,14.6495119 C24.1183664,15.2461988 24.2683296,15.8842292 24.5010311,16.4691835 C24.6737474,16.9021726 25.0584805,17.3407486 25.3072126,17.7296008 C25.6050705,18.1961116 25.8367378,18.6950268 26.2897301,18.9671116 C26.8533848,19.3067985 27.9326027,20.6409636 28.2966513,21.2097158 C28.8111802,22.0153548 29.7528456,22.6036613 30.5435136,23.07967 C30.5895368,23.1076048 30.6034989,23.1729721 30.6329744,23.2193439 C30.8408544,23.5450634 31.4117488,23.5590308 31.5870506,23.6646243 L20.8238302,7.27640587 Z" id="path12504-7-4-5-1" fill="#EAC102"></path>
                        <path d="M25.5073359,23.2774482 C20.4329951,22.8511635 17.5744432,19.3158494 14.109616,18.3117616 C12.1881686,18.1475051 10.8441675,18.4860746 9.70276657,19.7934224 L25.5073359,23.2774482 Z" id="path12506-8-1-5-8" fill="#EAC102"></path>
                        <path d="M21.5596841,29.5180782 C21.4381622,29.6041173 21.116517,30.5013825 20.9955122,30.7293303 C20.7938376,31.1070085 20.7312667,31.2835564 20.4282376,31.6372107 C20.1153834,32.0031563 19.7947724,32.3489889 19.4870893,32.7082302 C19.1716495,33.0780867 19.1059759,33.2674845 18.9203319,33.6161105 L21.5596841,29.5180782 Z" id="path12509-4-6-0-3" fill="#EAC102"></path>
                        <path d="M17.3700227,17.1317965 C17.0535486,17.5022117 17.7909539,18.1894073 17.5592866,18.6246312 C17.3400301,19.0347137 17.2422954,19.219642 16.8601478,19.6258137 L17.3700227,17.1317965 Z" id="path12511-1-3-8-9" fill="#EAC102"></path>
                        <path d="M25.2508471,13.6008402 C25.0217654,14.0293597 24.9152398,14.6305162 24.2435081,14.717114 C24.1643896,14.728288 24.1116439,14.8104162 24.0459704,14.8567879 L25.2508471,13.6008402 Z" id="path12513-3-9-6-4" fill="#EAC102"></path>
                        <path d="M64.2474829,42.8932512 C63.9149783,42.5803816 61.3335429,42.0490621 60.2160586,41.67306 C58.4511469,41.0786078 57.2664377,39.8964079 55.3789699,39.1913341 C54.0727388,38.7041515 52.3476449,36.886156 51.3325492,36.1525886 C50.9317855,35.8626256 49.9378915,35.614006 49.6043527,35.5430517 L64.2474829,42.8932512 Z" id="path12515-2-1-7-4" fill="#EAC102"></path>
                        <path d="M46.7002379,47.753903 C44.6441908,46.267214 49.8174039,51.9664679 51.8729338,53.453157 C53.468232,54.6063047 54.4905673,57.0031089 55.9767542,58.0774806 C56.5145533,58.465774 57.2793656,58.2115675 57.9216217,58.1277632 L46.7002379,47.753903 Z" id="path12517-8-34-6-3" fill="#EAC102"></path>
                    </g>
                    <g id="g12538-0-1-8-4" transform="translate(63.047278, 135.101159) rotate(-5.852464) translate(-63.047278, -135.101159) translate(14.809443, 96.101159)" stroke="#000000" stroke-width="1.30168069">
                        <path d="M9.91835349,25.8486529 C12.6133058,27.8069927 11.1033523,26.6850761 13.6522664,29.2475893 C14.4650824,30.766962 14.7963407,31.7327233 15.533746,33.078621 C16.5969333,34.9725991 19.4064162,35.749186 20.1763996,32.9048666 C21.3308266,24.3650926 13.6331228,23.6056017 9.91835349,25.8486529 L9.91835349,25.8486529 Z" id="path12540-4-3-9-3" fill="#ED1C24"></path>
                        <path d="M89.0534759,0.4635358 C89.0534759,0.4635358 74.3122852,11.4755938 65.055502,17.7853903 C57.6886015,22.8070022 50.3204392,26.9760447 42.678925,31.9494413 C38.9884239,34.3513854 33.1448857,38.8308951 28.1976516,36.5262757 C25.8675338,35.4418475 25.2707579,30.3205642 20.739801,29.7596339 C20.2310121,33.0128066 15.2079277,33.9747687 14.4403126,31.1809555 C10.7946557,32.2257163 9.79458214,38.9068777 11.9323333,41.6746557 C10.1441825,42.3035235 9.52207833,42.7841135 8.32132304,43.929216 C3.97107694,48.0778102 4.93298741,56.2251565 9.37571426,60.1406629 C10.9802532,61.5547774 12.8552327,61.8737367 14.2689254,62.3872897 L14.4020823,61.4284563 L15.1606893,65.4030168 L17.6935159,67.8758036 L20.14242,69.5809426 L19.5203313,70.7055968 C20.7248305,71.5663233 22.5633689,71.5877772 23.8792391,71.4782729 C25.4719516,71.2168033 26.7797341,70.8151012 27.8398187,69.6273143 C30.4538323,66.6220906 31.0764382,65.5315168 31.3029343,60.9261889 C32.2544249,60.8982542 33.2214289,60.8814933 34.1998095,60.8116563 C35.2009431,60.7155607 35.8969792,60.3691694 36.6328331,59.7473412 C36.6705824,59.9194195 36.7083318,60.0864694 36.763663,60.2261433 C37.2461308,61.4385128 38.0166314,62.3285149 38.2855309,62.7503301 C38.7080134,63.3436648 40.6327134,64.5750299 41.2853119,64.6431908 L41.0862228,63.1056605 L43.5114896,63.44423 L46.5722901,63.0687866 L46.2801205,64.7281125 C47.3024557,63.6207778 48.6417822,63.6777648 49.5188083,61.7418845 C50.2013994,60.2915107 50.3906633,58.2092522 50.3927318,56.6069132 C50.4196217,55.1286046 55.4814535,52.535419 57.9582198,51.560998 C63.8949782,49.225371 65.0574877,53.5260421 64.6149825,57.1291819 C68.059182,54.7581336 71.0872957,49.7668588 68.4540817,44.1988425 C72.5278939,44.8092174 74.4440512,47.1973059 73.9785085,52.8245439 C78.8297403,49.8446851 79.3379397,43.4139869 77.6894512,38.4883029 C83.6821511,41.1545101 82.6118844,42.9941271 82.5373838,47.6377815 C90.8952411,41.9066261 87.3155214,38.3763403 89.4511524,33.165554 C90.309278,31.0717864 92.6573138,28.7399585 96.3234433,25.2585586" id="path12542-9-0-9-9" fill="#EAC102"></path>
                        <path d="M41.2283827,70.1011999 C42.2315848,69.8157065 44.4517795,68.95755 45.8516084,66.551248 C47.1423261,64.3036156 47.1757524,60.3328542 44.680158,58.7483935 C44.0808223,58.352837 43.5538827,58.3718326 42.9840225,58.55285 C41.3204756,59.9416555 40.9623118,61.9281536 41.1606045,63.6913411 C41.4950742,65.2501018 41.3055517,69.4956298 41.2283465,70.1011999 L41.2283827,70.1011999 Z" id="path12544-6-9-0-2" fill="#ED1C24"></path>
                        <path d="M16.7859024,77.4350296 C16.9581016,76.7847079 17.739022,74.5512104 19.0545612,72.4287258 C19.7490459,71.3074237 21.3392504,70.7080551 21.9313465,69.1302987 C22.7204631,67.0268097 20.9771824,62.6788171 18.7354912,63.3241105 C10.4210353,65.5017942 15.2821129,76.2486394 16.7859024,77.4350296 L16.7859024,77.4350296 Z" id="path12546-2-2-5-8" fill="#ED1C24"></path>
                        <path d="M0.271355671,57.6320638 C1.3738437,56.8163682 4.12230707,55.9453617 6.62979509,56.2984574 C8.22509321,56.5297573 10.5583137,54.9436205 10.3974911,52.7999055 C10.1001502,48.6370645 7.28859892,47.9018211 4.69009875,49.5181275 C3.39110722,50.3260013 1.34333395,53.1166859 0.773990928,54.8592575 C0.617305246,55.2637531 0.327721148,56.7308878 0.271355671,57.6320638 L0.271355671,57.6320638 Z" id="path12548-9-7-6-3" fill="#ED1C24"></path>
                        <path d="M11.781853,41.6031427 C12.1888221,41.6590122 13.2333933,41.5696209 13.8704783,41.7903057 C14.3808703,41.9646187 15.0236436,41.9076318 15.450263,42.05401 C16.3293576,42.3540296 17.2229314,42.6596361 18.0823756,42.95351 C18.6093153,43.1334099 19.1010911,43.4524251 19.5530491,43.6071838 C20.1539362,43.8122251 20.7512034,44.1033055 21.3598471,44.2748251 C21.8102538,44.4010903 22.4018327,44.3195207 22.8677528,44.3379577 C23.4257194,44.3603055 23.966104,44.4742794 24.472359,44.2083403 C25.1027216,43.8775925 26.8443631,43.7172469 27.5259199,43.746299 C28.488787,43.7854077 29.5586969,43.2490599 30.4424455,42.7847839 C30.4941569,42.7568491 30.5541422,42.7898121 30.6099906,42.7903708 C30.9988606,42.8071317 31.3794569,42.2439665 31.5749262,42.1411665 L11.781853,41.6031427 Z" id="path12550-5-0-0-3" fill="#EAC102"></path>
                        <path d="M27.3438956,47.9778596 C27.3713027,47.9789769 25.9802648,49.5064507 25.7186049,49.7818877 C25.0603182,50.4752289 24.2810267,50.9462093 23.5063892,51.5607745 C22.6888312,52.2099788 21.7487172,52.7306831 20.803949,53.1228874 C19.6621603,53.5966613 18.8109899,54.1989351 17.6826461,54.6671221 C16.4575916,55.3733133 15.7156255,56.3582378 15.06191,57.6114479 C14.5224666,58.8781784 14.1034798,60.4029705 14.402072,61.4284563 L27.3438956,47.9778596 Z" id="path12552-7-25-9-0" fill="#EAC102"></path>
                        <path d="M29.6807359,56.2577284 C30.6349879,57.9783433 31.2382588,59.4096097 31.3029343,60.9261889 L29.6807359,56.2577284 Z" id="path12554-8-6-4-1" fill="#EAC102"></path>
                        <path d="M36.6328331,59.7473412 C36.1472109,58.2417124 35.7171681,56.9155367 36.121924,55.4143774 C36.4405182,53.8369004 37.3142917,52.6773835 37.7689387,51.8714092" id="path12556-2-5-3-0" fill="#EAC102"></path>
                        <path d="M48.9649684,50.1735333 C48.9665197,50.168505 49.7949371,51.5814462 49.9557597,51.7926332 C50.2556861,52.1859549 50.2106971,53.0854548 50.3534207,53.4843635 C50.5199316,53.9508743 50.3348046,54.7587481 50.4097862,55.2615742 C50.4521896,55.5453915 50.4196114,55.972235 50.4382275,56.1493415 L48.9649684,50.1735333 Z" id="path12558-3-2-2-5" fill="#EAC102"></path>
                        <path d="M17.2694717,51.8887288 C17.3547956,52.4630679 18.3698913,52.1982462 18.5607065,52.7318005 C18.7401452,53.2357439 18.8218493,53.4608982 18.8932111,54.125746 L17.2694717,51.8887288 Z" id="path12560-1-06-6-2" fill="#EAC102"></path>
                        <path id="path12562-4-4-6-1" fill="#EAC102" d="M19.5990723,41.5416862 C19.7878051,42.0685361 20.1923067,42.5909165 19.8241998,43.3256012 C19.781566,43.4116404 19.8122415,43.5217034 19.8060024,43.6200338 L19.5990723,41.5416862 Z"></path>
                        <path d="M67.7460485,22.6801225 C67.2852995,22.7974486 65.2008112,25.0204984 64.1841641,25.8808896 C62.5774895,27.2413134 60.8865252,27.6117286 59.1148911,29.0179654 C57.8882955,29.9912132 55.3497807,30.4649871 54.1190482,30.9756348 C53.6324435,31.1778827 52.7952352,32.0025174 52.5247843,32.2885695 L67.7460485,22.6801225 Z" id="path12564-6-1-2-9" fill="#EAC102"></path>
                        <path d="M58.3066049,42.8711582 C60.7712656,41.7757238 63.8061948,40.9334343 66.4770134,39.328637 C69.08311,37.7627249 71.3199714,35.4303943 74.1368748,34.6479411" id="path12566-7-5-1-4" fill="#EAC102"></path>
                    </g>
                    <g id="g8007" transform="translate(180.508065, 19.965550)" stroke="#000000" fill="#EAC102">
                        <g id="g5681-4-0-4" transform="translate(0.080424, 52.998122)" stroke-width="1.30000003">
                            <path d="M2.78421017,97.5334902 C4.13042569,104.070998 9.53982018,112.851742 15.7697502,111.978275 C28.3919206,110.208582 26.0235439,91.8010815 20.6328765,73.7368404 C16.1897037,58.8476699 10.1981841,51.4515532 8.85991823,35.4925289 C8.00682564,25.3192552 10.8006862,14.1103672 14.2461469,3.56716338 C15.0891427,-1.85555522 23.8375548,0.600405398 21.0721237,6.14114639 C18.1566539,14.5565119 15.7175827,27.0148846 16.1168675,35.4874182 C16.6593053,46.9975622 23.6498952,59.2124613 28.5348902,73.3464114 C32.035085,80.2614179 35.6953404,79.1369376 36.901314,79.0711399 C36.5039263,81.9127819 33.0060398,84.1158294 29.526272,80.7711261 C30.1991131,83.9044447 31.9884562,88.5223992 37.8996594,88.2153343 C35.9966151,90.2900261 33.8893646,91.7077192 30.7338622,89.7527813 C31.1651014,92.4061348 32.4967341,98.2868953 38.901588,99.8714284 C36.9264047,101.8689 33.8401609,103.137124 32.1145292,99.8004921 C32.8281771,106.65713 30.0518576,118.475931 18.0618325,120.652419 C8.36909243,122.411891 2.33663272,115.549249 0.133166437,109.391222" id="path4857-5-5-4"></path>
                        </g>
                        <g id="g5346-8-3-9-0" transform="translate(27.496276, 33.364050) rotate(206.423913) translate(-27.496276, -33.364050) translate(11.085466, 5.364050)">
                            <path d="M10.931854,1.0316422 L11.1301059,2.07535419 C10.0703438,4.49387176 7.37859019,9.598565 7.36886385,14.8730969 C7.3565114,21.7005591 12.0841232,29.363556 13.1233627,36.0188801 C13.6193669,39.1952635 12.3674028,41.8580869 10.8554828,44.31195 C11.3381619,44.6262827 13.7245962,44.3060029 14.906414,44.1279078 C14.1300093,48.1648133 13.2944587,49.1393013 11.5130025,50.4877316 C13.1853681,51.0553801 14.9554445,51.4637163 17.9469638,49.8804855 C17.8601076,51.3068621 17.4825896,53.1282139 16.5916864,55.6471181 C20.3012719,53.4854449 22.238009,50.5179427 23.4848766,47.2437201 C24.8601999,43.6321793 24.865423,41.3048601 26.1807056,37.6232032 C28.5021582,31.1251495 28.9450858,26.7579335 27.9417364,19.5631995 C26.9030222,11.6755618 21.8694004,4.87587233 18.389619,1.3208089 L18.2474297,0.219727447" id="path5344-0-6-3-5" stroke-width="1.30015455"></path>
                            <g id="g7256-8-5-8-0" transform="translate(16.620508, 27.296724) rotate(19.465786) translate(-16.620508, -27.296724) translate(7.171860, 5.796724)" stroke-width="1.30015453">
                                <path d="M1.42803061,0.636787962 C1.87839557,1.146499 5.22051178,3.85017714 7.32997779,6.23534432 C17.9853279,14.3790351 17.3859324,21.4380549 17.4261715,29.9992455" id="path7195_160-6-7-9-3-8-54-7-0"></path>
                                <path d="M0.449699738,5.28837388 C0.684149714,11.9101555 3.38550549,17.1217861 8.04268904,22.587295 C15.5999844,31.3116611 12.470072,29.9904706 13.3355667,37.9512263" id="path7193-2-5-5-6-9-1-3-7"></path>
                                <path d="M6.25184149,10.1069385 C10.6063146,13.9636599 10.5120342,18.3096954 14.5496819,22.873702 C16.9506831,25.58692 17.9130852,29.7313232 17.3539705,34.0643982 C17.0063715,37.714813 17.4990813,40.2033035 18.0834654,42.3424326" id="path7195-4-8-4-4-1-78-3-6"></path>
                            </g>
                        </g>
                    </g>
                    <g id="g8148" transform="translate(62.600177, 0.677440)">
                        <path d="M0.362828082,91.96963 C18.6264678,95.2556 18.5954365,81.29128 26.0979613,78.28468 C21.2672157,77.87298 13.2577461,82.87977 7.34856163,76.2815 C16.8687209,73.1324 16.7103815,68.35663 23.0692221,66.90859 C30.5500648,65.20504 35.8709466,68.75318 42.6510974,70.59085 C34.7783845,66.68105 36.2251217,60.54844 36.4778481,55.02278 C39.5092728,60.17466 44.4714043,62.50795 50.7382449,60.09658 C57.2092758,57.60659 61.4237707,50.44786 73.6350044,45.01278 L75.347895,41.27668 L91.6980344,12.52379 L108.778803,17.23724 C119.560506,20.21247 110.538042,34.22844 123.543559,41.08129 C121.451628,42.90211 115.61107,43.99288 111.468684,37.56578 C113.832338,43.38015 118.764333,46.15015 120.336588,51.47579 C121.944847,56.92339 118.94147,64.71474 119.306288,73.90919 C118.772688,71.38991 113.932294,73.68356 111.165631,66.35286 C113.180182,73.00116 113.71776,79.77473 111.976922,85.39254 C109.976792,91.84703 108.183041,97.00446 108.062198,102.7446 C102.433588,98.51496 100.52148,94.61413 98.7404598,86.91332 C100.035223,91.60069 103.289636,101.75649 98.4371085,107.99775 C93.8904191,113.84569 92.425083,117.37566 91.6767501,124.00033 C85.0432024,122.67703 84.6550122,109.88386 83.2814772,103.19203 C82.8016848,122.15579 73.2183687,121.11663 74.4179492,135.37444 C62.395589,133.28647 59.07424,119.58321 59.9574399,107.02609 C57.7821623,123.06089 42.9339601,124.33409 55.3068154,138.06647 C34.7517294,136.32102 31.7395998,122.16532 36.8863281,108.07472 C34.5969704,117.0574 24.928716,123.32595 18.3804051,123.19706 C26.6031159,108.14347 17.5747836,103.71084 25.6863981,93.95137 C13.8197914,103.62291 6.35973575,100.00285 0.362828082,91.96963 L0.362828082,91.96963 Z" id="path4126-6-3-2-3-1" stroke="#000000" stroke-width="1.29999995" fill="#EAC102"></path>
                        <g id="g8114" transform="translate(29.837836, 0.000000)">
                            <path d="M5.70827634,23.45801 C4.61203426,25.37812 3.89632404,26.9786 3.83843864,29.73886 C3.71928621,35.32423 7.90782213,38.35679 12.5356704,38.47056 C20.9818666,38.67835 22.6912762,34.41993 29.9995567,34.59954 C35.5358677,35.03627 39.0390285,40.88843 40.5817441,44.68123 C36.8969703,46.31928 35.3799153,45.93522 32.5985317,45.29098 C32.6592019,42.41018 30.8178096,39.40974 28.0306574,39.34124 C24.6176069,39.25744 20.6093909,43.37349 11.5350089,43.15049 C7.52062648,43.05189 0.40310916,40.09713 0.583429147,31.52503 C0.68089941,26.90604 3.77637594,23.0895 5.70827634,23.45801 L5.70827634,23.45801 Z" id="path4058-2-3-2-2-5" stroke="#000000" stroke-width="1.29999995" fill="#ED1C24"></path>
                            <path d="M24.4428566,45.91927 C23.232634,45.67015 21.8273714,45.45799 21.2745757,45.01693 C21.3788093,43.58454 21.7787357,42.09432 22.5783897,40.46005 C22.8419573,42.38642 23.4792934,44.19507 24.4428566,45.91927 L24.4428566,45.91927 Z M22.7642794,36.23752 C21.6203963,34.85597 20.8595315,33.47137 20.4379228,32.10786 C20.8732569,31.53805 22.2018362,30.97818 23.3219486,30.42549 C22.7747227,32.34572 22.5857497,34.2997 22.7642794,36.23752 L22.7642794,36.23752 Z" id="path4130-8-6-3-7-2" stroke="#000000" stroke-width="1.29999995" fill="#EAC102"></path>
                            <path d="M85.00501,14.23813 C83.8356652,19.29835 76.3388096,19.36616 70.9269224,17.0757 C72.6016206,17.62305 76.3405998,23.87366 81.4923011,25.00364 C79.2632158,27.44318 75.3671902,28.64814 70.5671776,27.77674 C80.1744633,34.98491 75.8536464,42.65 73.9557611,46.50456 C74.4264032,41.09988 71.6933569,38.37948 68.314222,36.20047 C66.8148708,46.36577 72.4195104,50.94182 62.0863695,57.87807 C65.6794417,52.20373 61.0270269,52.81459 60.9419891,44.9222 C61.8045014,53.93943 51.8245411,53.21965 50.4508071,63.60586 C44.9535837,55.3311 54.074115,51.4427 52.601021,44.30569 C52.4074729,51.78983 45.011867,49.51474 35.6287628,49.41467 C28.1123136,49.33447 15.009227,56.7513 19.4684916,44.36962 C21.9393627,43.71105 28.9714444,44.55897 31.0369188,44.60952 C42.5741158,45.82479 44.3116724,31.405 34.8336839,29.21273 C29.8367416,28.16123 25.5646598,31.84938 20.773499,32.72173 C15.0764616,33.75905 15.0294173,25.11993 15.4404832,21.99644 C13.8555968,21.13183 14.2889417,19.54774 14.4564314,18.55151 C15.6264724,17.8224 22.1908957,12.62952 26.7240586,12.29713 C27.5099872,10.62513 29.7583676,8.99077 31.6454117,8.21653 C34.6529661,6.98084 39.6404598,6.82763 41.3009354,6.04392 C44.1669589,4.69186 45.2260032,2.94814 50.1681434,2.13321 C55.2984608,1.2257 58.3748411,1.72502 61.8720344,2.82367 C63.902698,3.46173 65.4122936,3.87654 66.8791216,4.86507 C69.7781657,6.81911 80.3615466,14.84265 85.00501,14.2381 L85.00501,14.23813 Z" id="path4142-0-3-8-3-5" stroke="#000000" stroke-width="1.29999995" fill="#EAC102"></path>
                            <path d="M27.0498878,12.30573 C32.79387,13.03707 37.9333378,15.63281 45.3737005,15.81563" id="path4150-2-9-9-9-6" stroke="#000000" stroke-width="1.29999995" fill="#EAC102"></path>
                            <path d="M15.4396875,21.99686 C18.0802365,21.68731 19.9571358,20.0057 22.4368589,18.23503" id="path4174-1-6-8-6-4" stroke="#000000" stroke-width="1.29999995" fill="#EAC102"></path>
                            <path d="M39.993143,26.62668 C43.1730606,28.74031 44.349467,31.97967 44.9091254,35.56349" id="path4206-4-6-0-9" stroke="#000000" stroke-width="1.29999995" fill="#EAC102"></path>
                            <path d="M52.6523421,9.52807 C53.7366491,7.51261 55.0596587,5.24695 56.583477,3.67261 C59.0673773,1.29552 62.3030917,-0.14884 64.5223304,0.59898 C66.8111908,1.3743 68.4895691,5.18219 68.6545723,7.85819 C68.7281723,10.4663 68.3285442,12.82996 66.8446092,15.29369 L52.6523421,9.52807 Z" id="path7455_159-2-9-1-0" stroke="#000000" stroke-width="1.29999995" fill="#EAC102"></path>
                            <path d="M31.0456712,16.49324 C32.3123868,18.19294 32.8986008,18.37791 33.929697,18.75792 C34.9817791,19.14801 37.6959281,18.92241 37.6959281,18.92241 L31.0456712,16.49324 Z" id="path7471-4-8-8-8" stroke="#000000" stroke-width="1.29999995" fill="#EAC102"></path>
                            <path d="M30.7485859,9.27287 C30.7485859,9.27287 31.7230896,11.02016 32.2327198,11.31782 C35.0429466,11.10249 36.2862892,13.24971 39.0848793,10.92138 C39.5276728,10.39464 41.0523862,10.544 41.8793915,10.90458 C42.2648964,11.0727 43.091106,12.00487 43.091106,12.00487 L30.7485859,9.27287 Z" id="path7473-2-6-3-7" stroke="#000000" stroke-width="1.29999995" fill="#EAC102"></path>
                            <path d="M14.4568292,18.55156 C14.8803276,18.40857 15.4704205,18.18998 16.0813004,18.26198 C17.576176,18.43792 17.2896333,20.72467 16.9466971,21.65556" id="_39374160-4-5-3-3" stroke="#000000" stroke-width="1.29999995" fill="#EAC102"></path>
                            <path d="M33.0392365,11.40308 C32.859016,11.35308 32.6708387,11.32798 32.4790809,11.29779 C31.3901988,12.05371 30.8274572,12.96672 30.7051221,14.0397 C30.6593707,15.12428 31.0017102,16.09423 31.9860604,16.74855 C33.2660041,17.65531 37.9223972,17.67779 40.9194089,15.4949 C40.4332511,15.23238 33.5803954,11.54643 33.0392365,11.40353 L33.0392365,11.40353 L33.0392365,11.40308 Z" id="path7469_234-7-7-2-0" stroke="#000000" stroke-width="1.29999995" fill="#E6E6E6"></path>
                            <path d="M63.60611,4.08497 C59.5732281,6.80741 58.8870573,10.29801 58.5407395,11.21585 C57.6409298,7.96376 59.6031654,4.4392 63.60611,4.08497 L63.60611,4.08497 Z" id="path4178_235-5-2-7-4" fill="#000000"></path>
                            <path d="M34.980685,14.20392 C34.980685,15.26199 34.3191802,16.21896 33.5030159,16.34142 C32.6869511,16.46402 32.0254463,15.70545 32.0254463,14.64741 C32.0254463,13.58937 32.6869511,12.63237 33.5030159,12.50991 C34.3191802,12.38731 34.980685,13.14591 34.980685,14.20392 L34.980685,14.20392 Z" id="path5265-7-5-1-9" stroke="#000000" stroke-width="1.29999995" fill="#EAC102"></path>
                            <path d="M34.4268948,14.31454 C34.4268948,14.9323 34.0128451,15.49102 33.5020213,15.56252 C32.9911976,15.63402 32.5771479,15.19122 32.5771479,14.57346 C32.5771479,13.95573 32.9911976,13.397 33.5020213,13.32551 C34.0128451,13.25401 34.4268948,13.69684 34.4268948,14.31454 L34.4268948,14.31454 Z" id="path5265-3-6-1-4-4" stroke="#000000" stroke-width="1.29999995" fill="#EAC102"></path>
                        </g>
                        <path d="M42.6510974,70.59085 C44.9719837,71.62825 48.773324,72.20211 52.9748891,70.59985 C48.410297,79.3062 42.3165158,79.65736 35.7985401,81.08092 C47.0173674,89.55049 59.1484368,84.24888 68.3359042,77.23098 C63.5627456,83.7641 56.8774791,89.43998 56.2058294,94.99943 C70.4510089,83.84889 76.9459101,99.35621 84.345196,83.15264" id="path4122-3-1-5-3-1-3" stroke="#000000" stroke-width="1.29999995" fill="#EAC102"></path>
                    </g>
                </g>
            </g>
        </g>
    </g>
</svg>