<?xml version="1.0" encoding="UTF-8" standalone="no"?>
<svg width="196px" height="58px" viewBox="0 0 196 58" version="1.1" xmlns="http://www.w3.org/2000/svg" xmlns:xlink="http://www.w3.org/1999/xlink" xmlns:sketch="http://www.bohemiancoding.com/sketch/ns">
    <!-- Generator: Sketch 3.3.3 (12081) - http://www.bohemiancoding.com/sketch -->
    <title>App_Store_135x40_grey</title>
    <desc>Created with Sketch.</desc>
    <defs></defs>
    <g id="Page-1" stroke="none" stroke-width="1" fill="none" fill-rule="evenodd" sketch:type="MSPage">
        <g id="Tour" sketch:type="MSArtboardGroup" transform="translate(-706.000000, -1458.000000)">
            <g id="App_Store_135x40_grey" sketch:type="MSLayerGroup" transform="translate(706.000000, 1458.000000)">
                <g id="Group" sketch:type="MSShapeGroup">
                    <path d="M189.026756,58 L6.86580741,58 C3.08082963,58 0,54.9144 0,51.13715 L0,6.8527 C0,3.074 3.08082963,0 6.86580741,0 L189.026756,0 C192.810281,0 196,3.074 196,6.8527 L196,51.13715 C196,54.9144 192.810281,58 189.026756,58 L189.026756,58 L189.026756,58 Z" id="Shape" fill="#A6A6A6"></path>
                    <path d="M194.594607,51.1386 C194.594607,54.2068 192.106133,56.6921 189.028207,56.6921 L6.86580741,56.6921 C3.78933333,56.6921 1.29214815,54.2068 1.29214815,51.1386 L1.29214815,6.85125 C1.29214815,3.7845 3.78933333,1.2905 6.86580741,1.2905 L189.026756,1.2905 C192.106133,1.2905 194.593156,3.7845 194.593156,6.85125 L194.594607,51.1386 L194.594607,51.1386 Z" id="Shape" fill="#9B9B9B"></path>
                    <g transform="translate(17.422222, 8.700000)" id="Shape" fill="#FFFFFF">
                        <path d="M26.3191704,19.9868 C26.2770667,15.31345 30.1506074,13.03985 30.3277333,12.934 C28.1339852,9.73965 24.7337481,9.3032 23.5388741,9.2684 C20.6830815,8.96825 17.9129481,10.97505 16.4581926,10.97505 C14.9744,10.97505 12.7341926,9.2974 10.319763,9.3467 C7.2128,9.39455 4.30619259,11.1911 2.71205926,13.9809 C-0.577837037,19.66925 1.87579259,28.0285 5.02776296,32.62645 C6.60447407,34.8783 8.44687407,37.3926 10.8584,37.30415 C13.2176593,37.207 14.0989333,35.80195 16.9460148,35.80195 C19.766963,35.80195 20.5945185,37.30415 23.0539556,37.2476 C25.5859852,37.207 27.1801185,34.9856 28.7016593,32.71345 C30.5237333,30.13245 31.2554667,27.5906 31.2845037,27.4601 C31.2249778,27.4398 26.3670815,25.58815 26.3191704,19.9868 L26.3191704,19.9868 Z"></path>
                        <path d="M21.6732444,6.2437 C22.942163,4.65885 23.8103704,2.5027 23.569363,0.31465 C21.7327704,0.39585 19.4359407,1.5834 18.1133037,3.13345 C16.9431111,4.49935 15.8977778,6.73815 16.1678222,8.84355 C18.2309037,8.99725 20.3491556,7.8039 21.6732444,6.2437 L21.6732444,6.2437 Z"></path>
                    </g>
                    <g transform="translate(60.977778, 26.100000)" id="Shape" fill="#FFFFFF">
                        <path d="M16.9068148,19.5808 L13.6096593,19.5808 L11.8035556,13.91275 L5.52574815,13.91275 L3.8053037,19.5808 L0.595259259,19.5808 L6.81499259,0.2842 L10.6565926,0.2842 L16.9068148,19.5808 L16.9068148,19.5808 Z M11.2591111,11.53475 L9.62577778,6.496 C9.45300741,5.98125 9.12924444,4.76905 8.65158519,2.86085 L8.59351111,2.86085 C8.40331852,3.68155 8.09697778,4.89375 7.67594074,6.496 L6.07164444,11.53475 L11.2591111,11.53475 L11.2591111,11.53475 Z"></path>
                        <path d="M32.9018667,12.4526 C32.9018667,14.819 32.2616,16.6895 30.9810667,18.06265 C29.8341037,19.285 28.409837,19.89545 26.7097185,19.89545 C24.8745778,19.89545 23.5562963,19.23715 22.7534222,17.92055 L22.6953481,17.92055 L22.6953481,25.2503 L19.6,25.2503 L19.6,10.24715 C19.6,8.75945 19.5608,7.2326 19.4853037,5.6666 L22.2075259,5.6666 L22.3802963,7.87205 L22.4383704,7.87205 C23.470637,6.21035 25.0371852,5.38095 27.1394667,5.38095 C28.782963,5.38095 30.154963,6.0291 31.252563,7.32685 C32.3530667,8.62605 32.9018667,10.33415 32.9018667,12.4526 L32.9018667,12.4526 Z M29.7484444,12.5657 C29.7484444,11.2114 29.4435556,10.0949 28.8308741,9.2162 C28.1615704,8.2998 27.2628741,7.8416 26.136237,7.8416 C25.372563,7.8416 24.6785778,8.0968 24.058637,8.59995 C23.4372444,9.10745 23.0307259,9.7701 22.8405333,10.5908 C22.7447111,10.9736 22.6968,11.2868 22.6968,11.5333 L22.6968,13.8533 C22.6968,14.8654 23.0074963,15.71945 23.6288889,16.4169 C24.2502815,17.11435 25.0575111,17.46235 26.0505778,17.46235 C27.2164148,17.46235 28.1238222,17.01285 28.7728,16.11675 C29.4232296,15.2192 29.7484444,14.036 29.7484444,12.5657 L29.7484444,12.5657 Z"></path>
                        <path d="M48.9259556,12.4526 C48.9259556,14.819 48.2856889,16.6895 47.0037037,18.06265 C45.8581926,19.285 44.4339259,19.89545 42.7338074,19.89545 C40.8986667,19.89545 39.5803852,19.23715 38.778963,17.92055 L38.7208889,17.92055 L38.7208889,25.2503 L35.6255407,25.2503 L35.6255407,10.24715 C35.6255407,8.75945 35.5863407,7.2326 35.5108444,5.6666 L38.2330667,5.6666 L38.405837,7.87205 L38.4639111,7.87205 C39.4947259,6.21035 41.0612741,5.38095 43.1650074,5.38095 C44.8070519,5.38095 46.1790519,6.0291 47.2795556,7.32685 C48.3757037,8.62605 48.9259556,10.33415 48.9259556,12.4526 L48.9259556,12.4526 Z M45.7725333,12.5657 C45.7725333,11.2114 45.4661926,10.0949 44.8535111,9.2162 C44.1842074,8.2998 43.2884148,7.8416 42.1603259,7.8416 C41.3952,7.8416 40.7026667,8.0968 40.0812741,8.59995 C39.4598815,9.10745 39.0548148,9.7701 38.8646222,10.5908 C38.7702519,10.9736 38.7208889,11.2868 38.7208889,11.5333 L38.7208889,13.8533 C38.7208889,14.8654 39.0315852,15.71945 39.6500741,16.4169 C40.2714667,17.1129 41.0786963,17.46235 42.0746667,17.46235 C43.2405037,17.46235 44.1479111,17.01285 44.7968889,16.11675 C45.4473185,15.2192 45.7725333,14.036 45.7725333,12.5657 L45.7725333,12.5657 Z"></path>
                        <path d="M66.8418074,14.1694 C66.8418074,15.8108 66.2712296,17.14625 65.1257185,18.1772 C63.866963,19.30385 62.1145778,19.86645 59.8627556,19.86645 C57.7837037,19.86645 56.1169778,19.46625 54.8553185,18.6644 L55.5725333,16.08775 C56.9314667,16.90845 58.4225185,17.32025 60.0471407,17.32025 C61.2129778,17.32025 62.1203852,17.05635 62.7722667,16.53145 C63.4212444,16.00655 63.7450074,15.30185 63.7450074,14.42315 C63.7450074,13.64015 63.4778667,12.9804 62.9421333,12.44535 C62.4093037,11.9103 61.5193185,11.41295 60.2765333,10.9533 C56.8937185,9.69325 55.203763,7.8474 55.203763,5.4201 C55.203763,3.8338 55.7961185,2.53315 56.9822815,1.52105 C58.1640889,0.5075 59.7408,0.00145 61.7124148,0.00145 C63.4706074,0.00145 64.9311704,0.3074 66.0970074,0.91785 L65.3231704,3.43795 C64.2342815,2.84635 63.0031111,2.55055 61.6253037,2.55055 C60.5364148,2.55055 59.6856296,2.8188 59.0758519,3.3524 C58.5604444,3.82945 58.3020148,4.4109 58.3020148,5.09965 C58.3020148,5.86235 58.5967407,6.4931 59.1890963,6.989 C59.7045037,7.4472 60.6409481,7.9431 61.9998815,8.47815 C63.6622519,9.1466 64.8832593,9.92815 65.6687111,10.82425 C66.4512593,11.71745 66.8418074,12.8354 66.8418074,14.1694 L66.8418074,14.1694 Z"></path>
                        <path d="M77.0759111,7.9866 L73.6640593,7.9866 L73.6640593,14.74215 C73.6640593,16.4604 74.2651259,17.3188 75.470163,17.3188 C76.0233185,17.3188 76.4821037,17.27095 76.8450667,17.17525 L76.9307259,19.5228 C76.3209481,19.75045 75.5180741,19.865 74.5235556,19.865 C73.3010963,19.865 72.3457778,19.49235 71.6561481,18.7485 C70.9694222,18.0032 70.6238815,16.7533 70.6238815,14.99735 L70.6238815,7.9837 L68.5912889,7.9837 L68.5912889,5.6637 L70.6238815,5.6637 L70.6238815,3.11605 L73.6640593,2.19965 L73.6640593,5.6637 L77.0759111,5.6637 L77.0759111,7.9866 L77.0759111,7.9866 Z"></path>
                        <path d="M92.4698963,12.50915 C92.4698963,14.6479 91.8572148,16.40385 90.6347556,17.777 C89.3527704,19.19075 87.6512,19.89545 85.5300444,19.89545 C83.485837,19.89545 81.8583111,19.2183 80.644563,17.864 C79.4308148,16.5097 78.8239407,14.80015 78.8239407,12.7397 C78.8239407,10.58355 79.448237,8.81745 80.7011852,7.4443 C81.9512296,6.0697 83.6382815,5.3824 85.759437,5.3824 C87.8036444,5.3824 89.4485926,6.05955 90.6899259,7.4153 C91.8775407,8.73045 92.4698963,10.4284 92.4698963,12.50915 L92.4698963,12.50915 Z M89.2584,12.6092 C89.2584,11.32595 88.984,10.2254 88.4279407,9.30755 C87.778963,8.19685 86.8512296,7.64295 85.6490963,7.64295 C84.4048593,7.64295 83.4597037,8.1983 82.8107259,9.30755 C82.2546667,10.22685 81.9802667,11.3448 81.9802667,12.6672 C81.9802667,13.95045 82.2546667,15.051 82.8107259,15.9674 C83.4800296,17.0781 84.4150222,17.632 85.6215111,17.632 C86.8033185,17.632 87.7310519,17.0665 88.4003556,15.9384 C88.9709333,15.00315 89.2584,13.891 89.2584,12.6092 L89.2584,12.6092 Z"></path>
                        <path d="M102.53123,8.38535 C102.224889,8.3288 101.898222,8.2998 101.555585,8.2998 C100.466696,8.2998 99.6246222,8.71015 99.0322667,9.5323 C98.5168593,10.2573 98.2584296,11.1737 98.2584296,12.28005 L98.2584296,19.5808 L95.1645333,19.5808 L95.1935704,10.0485 C95.1935704,8.4448 95.1543704,6.98465 95.0774222,5.66805 L97.7735111,5.66805 L97.8867556,8.33025 L97.9724148,8.33025 C98.2990815,7.4153 98.8144889,6.6787 99.5200889,6.12625 C100.209719,5.6289 100.954519,5.38095 101.757393,5.38095 C102.043407,5.38095 102.301837,5.40125 102.53123,5.4375 L102.53123,8.38535 L102.53123,8.38535 Z"></path>
                        <path d="M116.374637,11.9654 C116.374637,12.5193 116.338341,12.9862 116.261393,13.36755 L106.975348,13.36755 C107.011644,14.74215 107.460267,15.7934 108.322667,16.5184 C109.105215,17.16655 110.117156,17.49135 111.359941,17.49135 C112.734844,17.49135 113.989244,17.2724 115.117333,16.83305 L115.602252,18.97905 C114.28397,19.55325 112.727585,19.8389 110.931644,19.8389 C108.771289,19.8389 107.075526,19.2038 105.841452,17.93505 C104.610281,16.6663 103.993244,14.96255 103.993244,12.82525 C103.993244,10.7271 104.566726,8.97985 105.715141,7.5864 C106.917274,6.0987 108.541896,5.35485 110.586104,5.35485 C112.594015,5.35485 114.114104,6.0987 115.14637,7.5864 C115.963763,8.76815 116.374637,10.22975 116.374637,11.9654 L116.374637,11.9654 Z M113.423022,11.16355 C113.443348,10.24715 113.241541,9.45545 112.821956,8.787 C112.286222,7.92715 111.463022,7.49795 110.355259,7.49795 C109.343319,7.49795 108.520119,7.917 107.891467,8.758 C107.376059,9.42645 107.069719,10.2283 106.975348,11.1621 L113.423022,11.1621 L113.423022,11.16355 Z"></path>
                    </g>
                    <g transform="translate(62.429630, 8.700000)" id="Shape" fill="#FFFFFF">
                        <path d="M8.7837037,5.81305 C8.7837037,7.5197 8.2712,8.8044 7.24764444,9.66715 C6.29958519,10.4632 4.95226667,10.86195 3.20714074,10.86195 C2.34183704,10.86195 1.60139259,10.82425 0.981451852,10.74885 L0.981451852,1.4239 C1.79013333,1.2934 2.66124444,1.2267 3.60204444,1.2267 C5.26441481,1.2267 6.51736296,1.58775 7.36234074,2.30985 C8.30894815,3.1262 8.7837037,4.29345 8.7837037,5.81305 L8.7837037,5.81305 Z M7.17940741,5.8551 C7.17940741,4.74875 6.88613333,3.9005 6.29958519,3.3089 C5.71303704,2.71875 4.85644444,2.42295 3.72835556,2.42295 C3.24924444,2.42295 2.84127407,2.45485 2.50299259,2.52155 L2.50299259,9.6106 C2.69028148,9.6396 3.03291852,9.65265 3.5309037,9.65265 C4.69528889,9.65265 5.59398519,9.3293 6.22699259,8.6826 C6.86,8.0359 7.17940741,7.0934 7.17940741,5.8551 L7.17940741,5.8551 Z"></path>
                        <path d="M17.2901037,7.30365 C17.2901037,8.3549 16.9895704,9.2162 16.3885037,9.8919 C15.7584,10.58645 14.9235852,10.933 13.8811556,10.933 C12.8764741,10.933 12.0765037,10.60095 11.4797926,9.93395 C10.8845333,9.2684 10.5869037,8.42885 10.5869037,7.41675 C10.5869037,6.35825 10.8932444,5.4897 11.5088296,4.81545 C12.1244148,4.1412 12.9519704,3.80335 13.9944,3.80335 C14.9990815,3.80335 15.8063111,4.1354 16.4175407,4.80095 C16.9982815,5.44765 17.2901037,6.28285 17.2901037,7.30365 L17.2901037,7.30365 Z M15.7119407,7.35295 C15.7119407,6.7222 15.5754667,6.18135 15.3039704,5.7304 C14.984563,5.1852 14.5301333,4.9126 13.9392296,4.9126 C13.328,4.9126 12.8634074,5.1852 12.544,5.7304 C12.2710519,6.18135 12.1360296,6.7309 12.1360296,7.3805 C12.1360296,8.01125 12.2725037,8.5521 12.544,9.00305 C12.8735704,9.54825 13.3323556,9.82085 13.9247111,9.82085 C14.5054519,9.82085 14.9613333,9.5439 15.2894519,8.98855 C15.5711111,8.5289 15.7119407,7.9837 15.7119407,7.35295 L15.7119407,7.35295 Z"></path>
                        <path d="M28.6958519,3.94255 L26.5543704,10.77785 L25.1605926,10.77785 L24.2735111,7.8097 C24.0484741,7.06875 23.8655407,6.33215 23.7232593,5.60135 L23.6956741,5.60135 C23.5635556,6.35245 23.3806222,7.0876 23.1454222,7.8097 L22.2031704,10.77785 L20.7934222,10.77785 L18.7797037,3.94255 L20.3433481,3.94255 L21.1171852,7.192 C21.3044741,7.9605 21.4583704,8.69275 21.5817778,9.38585 L21.609363,9.38585 C21.7226074,8.81455 21.9098963,8.08665 22.1741333,7.2065 L23.1454222,3.944 L24.3853037,3.944 L25.3159407,7.1369 C25.5409778,7.91555 25.7239111,8.6652 25.8647407,9.3873 L25.9068444,9.3873 C26.0099259,8.68405 26.1652741,7.9344 26.371437,7.1369 L27.2018963,3.944 L28.6958519,3.944 L28.6958519,3.94255 Z"></path>
                        <path d="M36.583763,10.77785 L35.0622222,10.77785 L35.0622222,6.86285 C35.0622222,5.65645 34.603437,5.05325 33.682963,5.05325 C33.231437,5.05325 32.8670222,5.21855 32.5839111,5.5506 C32.3037037,5.88265 32.1614222,6.27415 32.1614222,6.7222 L32.1614222,10.7764 L30.6398815,10.7764 L30.6398815,5.8957 C30.6398815,5.2954 30.6210074,4.64435 30.5847111,3.93965 L31.9218667,3.93965 L31.9930074,5.0083 L32.0351111,5.0083 C32.212237,4.67625 32.4764741,4.4022 32.8234667,4.18325 C33.2357926,3.92805 33.6974815,3.799 34.2027259,3.799 C34.8415407,3.799 35.3729185,4.0049 35.7954074,4.41815 C36.3209778,4.9242 36.583763,5.67965 36.583763,6.68305 L36.583763,10.77785 L36.583763,10.77785 Z"></path>
                        <path d="M40.7796148,10.77785 L39.2595259,10.77785 L39.2595259,0.8062 L40.7796148,0.8062 L40.7796148,10.77785 L40.7796148,10.77785 Z"></path>
                        <path d="M49.7375407,7.30365 C49.7375407,8.3549 49.4370074,9.2162 48.8359407,9.8919 C48.205837,10.58645 47.3695704,10.933 46.3285926,10.933 C45.3224593,10.933 44.5224889,10.60095 43.9272296,9.93395 C43.3319704,9.2684 43.0343407,8.42885 43.0343407,7.41675 C43.0343407,6.35825 43.3406815,5.4897 43.9562667,4.81545 C44.5718519,4.1412 45.3994074,3.80335 46.4403852,3.80335 C47.4465185,3.80335 48.2522963,4.1354 48.8649778,4.80095 C49.4457185,5.44765 49.7375407,6.28285 49.7375407,7.30365 L49.7375407,7.30365 Z M48.1579259,7.35295 C48.1579259,6.7222 48.0214519,6.18135 47.7499556,5.7304 C47.432,5.1852 46.9761185,4.9126 46.3866667,4.9126 C45.7739852,4.9126 45.3093926,5.1852 44.991437,5.7304 C44.7184889,6.18135 44.5834667,6.7309 44.5834667,7.3805 C44.5834667,8.01125 44.7199407,8.5521 44.991437,9.00305 C45.3210074,9.54825 45.7797926,9.82085 46.3721481,9.82085 C46.9528889,9.82085 47.4073185,9.5439 47.735437,8.98855 C48.0185481,8.5289 48.1579259,7.9837 48.1579259,7.35295 L48.1579259,7.35295 Z"></path>
                        <path d="M57.1013333,10.77785 L55.7351407,10.77785 L55.6218963,9.9905 L55.5797926,9.9905 C55.1122963,10.61835 54.4458963,10.933 53.5805926,10.933 C52.9345185,10.933 52.4118519,10.72565 52.0184,10.31385 C51.6612444,9.93975 51.4826667,9.4743 51.4826667,8.92185 C51.4826667,8.08665 51.8311111,7.4501 52.5323556,7.0093 C53.2321481,6.5685 54.2165037,6.35245 55.4839704,6.3626 L55.4839704,6.235 C55.4839704,5.33455 55.0106667,4.88505 54.0626074,4.88505 C53.3874963,4.88505 52.792237,5.0547 52.2782815,5.3911 L51.969037,4.3935 C52.6049481,4.00055 53.3904,3.80335 54.3166815,3.80335 C56.105363,3.80335 57.0026074,4.74585 57.0026074,6.63085 L57.0026074,9.14805 C57.0026074,9.831 57.036,10.37475 57.1013333,10.77785 L57.1013333,10.77785 Z M55.5217185,8.42885 L55.5217185,7.3747 C53.8433778,7.3457 53.0042074,7.80535 53.0042074,8.7522 C53.0042074,9.1089 53.1000296,9.3757 53.2960296,9.55405 C53.4920296,9.7324 53.7417481,9.82085 54.0393778,9.82085 C54.3733037,9.82085 54.6854519,9.715 54.9700148,9.50475 C55.2560296,9.29305 55.4317037,9.0248 55.497037,8.69565 C55.5130074,8.6217 55.5217185,8.5318 55.5217185,8.42885 L55.5217185,8.42885 Z"></path>
                        <path d="M65.7471111,10.77785 L64.3968889,10.77785 L64.3257481,9.6802 L64.2836444,9.6802 C63.8524444,10.5154 63.1178074,10.933 62.0855407,10.933 C61.2608889,10.933 60.574163,10.60965 60.0297185,9.96295 C59.4852741,9.31625 59.2137778,8.4767 59.2137778,7.44575 C59.2137778,6.3394 59.5085037,5.4433 60.1008593,4.7589 C60.6743407,4.1209 61.377037,3.8019 62.2133037,3.8019 C63.1323259,3.8019 63.7754963,4.11075 64.141363,4.7299 L64.1704,4.7299 L64.1704,0.8062 L65.6933926,0.8062 L65.6933926,8.93635 C65.6933926,9.6019 65.7108148,10.21525 65.7471111,10.77785 L65.7471111,10.77785 Z M64.1704,7.89525 L64.1704,6.75555 C64.1704,6.55835 64.1558815,6.39885 64.1282963,6.27705 C64.042637,5.91165 63.8582519,5.60425 63.5780444,5.3563 C63.2949333,5.10835 62.9537481,4.98365 62.5602963,4.98365 C61.9926222,4.98365 61.5483556,5.2084 61.2216889,5.65935 C60.8979259,6.1103 60.7338667,6.68595 60.7338667,7.3892 C60.7338667,8.0649 60.8892148,8.613 61.201363,9.03495 C61.5309333,9.48445 61.9752,9.7092 62.5312593,9.7092 C63.0306963,9.7092 63.4299556,9.52215 63.7333926,9.1466 C64.0266667,8.80005 64.1704,8.38245 64.1704,7.89525 L64.1704,7.89525 Z"></path>
                        <path d="M78.7600593,7.30365 C78.7600593,8.3549 78.4595259,9.2162 77.8584593,9.8919 C77.2283556,10.58645 76.3949926,10.933 75.3511111,10.933 C74.3478815,10.933 73.5479111,10.60095 72.9497481,9.93395 C72.3544889,9.2684 72.0568593,8.42885 72.0568593,7.41675 C72.0568593,6.35825 72.3632,5.4897 72.9787852,4.81545 C73.5943704,4.1412 74.4219259,3.80335 75.4658074,3.80335 C76.469037,3.80335 77.2777185,4.1354 77.8874963,4.80095 C78.468237,5.44765 78.7600593,6.28285 78.7600593,7.30365 L78.7600593,7.30365 Z M77.1833481,7.35295 C77.1833481,6.7222 77.0468741,6.18135 76.7753778,5.7304 C76.4545185,5.1852 76.0015407,4.9126 75.4091852,4.9126 C74.7994074,4.9126 74.3348148,5.1852 74.0139556,5.7304 C73.7410074,6.18135 73.6059852,6.7309 73.6059852,7.3805 C73.6059852,8.01125 73.7424593,8.5521 74.0139556,9.00305 C74.3435259,9.54825 74.8023111,9.82085 75.3946667,9.82085 C75.9754074,9.82085 76.4327407,9.5439 76.7608593,8.98855 C77.0410667,8.5289 77.1833481,7.9837 77.1833481,7.35295 L77.1833481,7.35295 Z"></path>
                        <path d="M86.9412444,10.77785 L85.4211556,10.77785 L85.4211556,6.86285 C85.4211556,5.65645 84.9623704,5.05325 84.0404444,5.05325 C83.5889185,5.05325 83.2245037,5.21855 82.9428444,5.5506 C82.6611852,5.88265 82.5203556,6.27415 82.5203556,6.7222 L82.5203556,10.7764 L80.997363,10.7764 L80.997363,5.8957 C80.997363,5.2954 80.9799407,4.64435 80.9436444,3.93965 L82.2793481,3.93965 L82.3504889,5.0083 L82.3925926,5.0083 C82.5711704,4.67625 82.8354074,4.4022 83.1809481,4.18325 C83.5947259,3.92805 84.054963,3.799 84.5616593,3.799 C85.1990222,3.799 85.7304,4.0049 86.1528889,4.41815 C86.6799111,4.9242 86.9412444,5.67965 86.9412444,6.68305 L86.9412444,10.77785 L86.9412444,10.77785 Z"></path>
                        <path d="M97.1811556,5.0808 L95.5057185,5.0808 L95.5057185,8.4013 C95.5057185,9.2452 95.8033481,9.66715 96.3928,9.66715 C96.6657481,9.66715 96.892237,9.64395 97.0708148,9.5961 L97.1100148,10.74885 C96.8094815,10.86195 96.4145778,10.9185 95.9282074,10.9185 C95.3271407,10.9185 94.8596444,10.7358 94.521363,10.3704 C94.1816296,10.005 94.0132148,9.3902 94.0132148,8.52745 L94.0132148,5.0808 L93.0128889,5.0808 L93.0128889,3.94255 L94.0132148,3.94255 L94.0132148,2.68975 L95.5042667,2.24025 L95.5042667,3.9411 L97.1797037,3.9411 L97.1797037,5.0808 L97.1811556,5.0808 Z"></path>
                        <path d="M105.23603,10.77785 L103.713037,10.77785 L103.713037,6.89185 C103.713037,5.6666 103.254252,5.05325 102.33523,5.05325 C101.62963,5.05325 101.147615,5.4085 100.883378,6.119 C100.83837,6.26835 100.812237,6.45105 100.812237,6.66565 L100.812237,10.7764 L99.2921481,10.7764 L99.2921481,0.8062 L100.812237,0.8062 L100.812237,4.92565 L100.841274,4.92565 C101.320385,4.176 102.007111,3.8019 102.897096,3.8019 C103.5272,3.8019 104.048415,4.0078 104.462193,4.42105 C104.9776,4.9358 105.23603,5.7014 105.23603,6.7135 L105.23603,10.77785 L105.23603,10.77785 Z"></path>
                        <path d="M113.544978,7.03685 C113.544978,7.30945 113.524652,7.53855 113.488356,7.7256 L108.925185,7.7256 C108.945511,8.4013 109.163289,8.91605 109.585778,9.27275 C109.97197,9.59175 110.469956,9.75125 111.079733,9.75125 C111.754844,9.75125 112.37043,9.64395 112.925037,9.4279 L113.163141,10.4835 C112.514163,10.7648 111.750489,10.90545 110.866311,10.90545 C109.806459,10.90545 108.971644,10.5937 108.367674,9.9702 C107.7608,9.3467 107.460267,8.51005 107.460267,7.46025 C107.460267,6.4293 107.740474,5.5709 108.305244,4.8865 C108.894696,4.1557 109.691763,3.7903 110.697896,3.7903 C111.682252,3.7903 112.429956,4.1557 112.9352,4.8865 C113.34317,5.4665 113.544978,6.18425 113.544978,7.03685 L113.544978,7.03685 Z M112.093126,6.6439 C112.104741,6.19295 112.004563,5.80435 111.7984,5.47665 C111.534163,5.0547 111.132,4.843 110.587556,4.843 C110.091022,4.843 109.685956,5.0489 109.376711,5.46215 C109.124089,5.7913 108.974548,6.18425 108.925185,6.6439 L112.093126,6.6439 L112.093126,6.6439 Z"></path>
                    </g>
                </g>
            </g>
        </g>
    </g>
</svg>