<?xml version="1.0" encoding="UTF-8" standalone="no"?>
<svg width="197px" height="60px" viewBox="0 0 197 60" version="1.1" xmlns="http://www.w3.org/2000/svg" xmlns:xlink="http://www.w3.org/1999/xlink" xmlns:sketch="http://www.bohemiancoding.com/sketch/ns">
    <!-- Generator: Sketch 3.3.3 (12081) - http://www.bohemiancoding.com/sketch -->
    <title>get_it_on_google_play_grey</title>
    <desc>Created with Sketch.</desc>
    <defs></defs>
    <g id="Page-1" stroke="none" stroke-width="1" fill="none" fill-rule="evenodd" sketch:type="MSPage">
        <g id="Tour" sketch:type="MSArtboardGroup" transform="translate(-917.000000, -1456.000000)">
            <g id="get_it_on_google_play_grey" sketch:type="MSLayerGroup" transform="translate(917.000000, 1457.000000)">
                <g id="Group" sketch:type="MSShapeGroup">
                    <path d="M195.839817,49.674 C195.839817,54.793 191.487108,57.975 185.568535,57.975 L11.5585389,57.975 C5.63765078,57.975 0.834741117,53.824 0.834741117,48.704 L0.834741117,9.545 C0.834741117,4.427 5.63649345,0.277 11.5585389,0.277 L185.568535,0.277 C191.487108,0.277 195.839817,4.427 195.839817,9.545 L195.839817,49.674 L195.839817,49.674 Z" id="Shape" stroke="#FFFFFF" stroke-width="1.1758" fill="#010101"></path>
                    <path d="M195.839817,49.674 C195.839817,54.793 191.487108,57.975 185.568535,57.975 L11.5585389,57.975 C5.63765078,57.975 0.834741117,53.824 0.834741117,48.704 L0.834741117,9.545 C0.834741117,4.427 5.63649345,0.277 11.5585389,0.277 L185.568535,0.277 C191.487108,0.277 195.839817,4.427 195.839817,9.545 L195.839817,49.674 L195.839817,49.674 Z" id="Shape" stroke="#FFFFFF" stroke-width="1.1758" fill="#9B9B9B"></path>
                    <g transform="translate(49.746193, 24.000000)" id="Shape" fill="#FFFFFF">
                        <g>
                            <path d="M75.6022741,17.692 L74.3417056,18.885 C74.0521827,19.044 73.7626599,19.233 73.4731371,19.364 C72.5995939,19.763 71.7111269,19.863 70.9221523,19.863 C70.0794518,19.863 68.7631675,19.808 67.4190254,18.831 C65.5495635,17.509 64.7347208,15.237 64.7347208,13.255 C64.7347208,9.153 68.0577665,7.143 70.7659492,7.143 C71.7131168,7.143 72.6851574,7.382 73.4761218,7.884 C74.7914112,8.757 75.1316751,9.894 75.3207107,10.502 L69.1332792,13.015 L67.1056244,13.173 C67.7622741,16.534 70.0267208,18.489 72.5269645,18.489 C73.7765888,18.489 74.7038579,18.081 75.5545178,17.658 C75.5535228,17.659 75.7246497,17.57 75.6022741,17.692 L75.6022741,17.692 Z M71.8693198,11.004 C72.3717563,10.82 72.6334213,10.661 72.6334213,10.293 C72.6334213,9.236 71.4444873,8.018 70.0257259,8.018 C68.9740914,8.018 67.0001624,8.84 67.0001624,11.699 C67.0001624,12.143 67.0528934,12.619 67.0797563,13.095 L71.8693198,11.004 L71.8693198,11.004 Z"></path>
                            <path d="M62.6662741,17.486 C62.6662741,18.514 62.8493401,18.674 63.7139289,18.756 C64.1646294,18.809 64.614335,18.832 65.0610558,18.887 L64.0870254,19.468 L59.4506802,19.468 C60.0585787,18.676 60.1620508,18.597 60.1620508,18.07 L60.1620508,17.477 L60.1521015,1.751 L58.1035533,1.751 L60.0735025,0.796 L63.8363046,0.796 C63.0214619,1.271 62.7767107,1.559 62.6712487,2.484 L62.6662741,17.486 L62.6662741,17.486 Z"></path>
                            <path d="M55.4749645,8.441 C56.0778883,8.941 57.3394518,10 57.3394518,12.009 C57.3394518,13.967 56.2410558,14.891 55.1327107,15.766 C54.7924467,16.11 54.3954721,16.484 54.3954721,17.062 C54.3954721,17.646 54.7924467,17.962 55.0799797,18.201 L56.0321218,18.937 C57.1852386,19.917 58.2408528,20.818 58.2408528,22.643 C58.2408528,25.131 55.8460711,27.639 51.3181726,27.639 C47.5036345,27.639 45.6600406,25.816 45.6600406,23.859 C45.6600406,22.905 46.1316345,21.556 47.6876954,20.631 C49.3203655,19.629 51.5300914,19.494 52.7150457,19.417 C52.344934,18.937 51.9230863,18.434 51.9230863,17.615 C51.9230863,17.166 52.0583959,16.898 52.1867411,16.583 C51.8992081,16.611 51.6096853,16.641 51.3450355,16.641 C48.5532792,16.641 46.9733401,14.545 46.9733401,12.486 C46.9733401,11.268 47.5275127,9.92 48.659736,8.941 C50.1600812,7.699 51.9499492,7.484 53.3687107,7.484 L58.7920406,7.484 L57.1086294,8.441 L55.4749645,8.441 L55.4749645,8.441 Z M53.6094822,20.185 C53.3935838,20.158 53.2632487,20.158 53.0045685,20.158 C52.7667817,20.158 51.3450355,20.211 50.2436548,20.582 C49.6626193,20.797 47.9782132,21.428 47.9782132,23.307 C47.9782132,25.182 49.7959391,26.536 52.6075939,26.536 C55.1347005,26.536 56.4768528,25.318 56.4768528,23.68 C56.4748629,22.328 55.6072893,21.615 53.6094822,20.185 L53.6094822,20.185 Z M54.3656244,15.158 C54.9755127,14.547 55.0272487,13.705 55.0272487,13.225 C55.0272487,11.324 53.8990051,8.36 51.7111675,8.36 C51.0286497,8.36 50.2894213,8.704 49.8685685,9.236 C49.4258274,9.788 49.2925076,10.503 49.2925076,11.189 C49.2925076,12.96 50.319269,15.899 52.579736,15.899 C53.2403655,15.899 53.9497462,15.576 54.3656244,15.158 L54.3656244,15.158 Z"></path>
                            <path d="M39.1582132,19.811 C34.9745584,19.811 32.7369746,16.537 32.7369746,13.573 C32.7369746,10.109 35.5506193,7.144 39.552203,7.144 C43.420467,7.144 45.8441015,10.188 45.8441015,13.385 C45.8441015,16.506 43.4493198,19.811 39.1582132,19.811 L39.1582132,19.811 Z M42.4494213,17.67 C43.0861726,16.824 43.2393909,15.768 43.2393909,14.737 C43.2393909,12.408 42.1350254,7.965 38.8706802,7.965 C38.0031066,7.965 37.1295635,8.306 36.4997766,8.863 C35.4700305,9.788 35.2879594,10.95 35.2879594,12.092 C35.2879594,14.705 36.573401,19.016 39.7641218,19.016 C40.7928731,19.016 41.8425178,18.516 42.4494213,17.67 L42.4494213,17.67 Z"></path>
                            <path d="M25.1516751,19.811 C20.9670254,19.811 18.7334213,16.537 18.7334213,13.573 C18.7334213,10.109 21.5490558,7.144 25.5486497,7.144 C29.4159188,7.144 31.8355736,10.188 31.8355736,13.385 C31.8355736,16.506 29.4447716,19.811 25.1516751,19.811 L25.1516751,19.811 Z M28.4438782,17.67 C29.0746599,16.824 29.2328528,15.768 29.2328528,14.737 C29.2328528,12.408 28.1255025,7.965 24.8641421,7.965 C23.9935838,7.965 23.128,8.306 22.4972183,8.863 C21.4664772,9.788 21.285401,10.95 21.285401,12.092 C21.285401,14.705 22.5748223,19.016 25.7595736,19.016 C26.7883249,19.016 27.8369746,18.516 28.4438782,17.67 L28.4438782,17.67 Z"></path>
                            <path d="M17.0609543,18.893 L13.5319594,19.705 C12.1032487,19.933 10.819797,20.132 9.46073096,20.132 C2.65545178,20.132 0.0616852792,15.097 0.0616852792,11.156 C0.0616852792,6.344 3.73593909,1.882 10.0278376,1.882 C11.3580508,1.882 12.6395127,2.078 13.8065584,2.397 C15.6551269,2.92 16.5207107,3.564 17.0609543,3.941 L15.0104162,5.899 L14.1458274,6.091 L14.7616853,5.105 C13.9279391,4.286 12.3937665,2.773 9.48261929,2.773 C5.58948223,2.773 2.65346193,5.746 2.65346193,10.09 C2.65346193,14.752 6.00735025,19.139 11.3829239,19.139 C12.9638579,19.139 13.7767107,18.82 14.5139492,18.523 L14.5139492,14.525 L10.7889543,14.725 L12.7638782,13.66 L17.9912081,13.66 L17.3504772,14.279 C17.1783553,14.426 17.156467,14.475 17.1077157,14.675 C17.0818477,14.902 17.0579695,15.618 17.0579695,15.871 L17.0579695,18.893 L17.0609543,18.893 L17.0609543,18.893 Z"></path>
                        </g>
                        <g transform="translate(81.583756, 2.000000)">
                            <path d="M1.60481218,15.805 L1.60481218,22.543 L0.273604061,22.543 L0.273604061,5.398 L1.60481218,5.398 L1.60481218,7.349 C2.47139086,6.088 4.05630457,5.088 5.89591878,5.088 C9.19608122,5.088 11.4217259,7.605 11.4217259,11.588 C11.4217259,15.546 9.19807107,18.115 5.89591878,18.115 C4.15977665,18.117 2.60371574,17.217 1.60481218,15.805 L1.60481218,15.805 Z M9.9920203,11.59 C9.9920203,8.587 8.43496447,6.297 5.67206091,6.297 C3.95681218,6.297 2.31817259,7.651 1.60481218,8.832 L1.60481218,14.32 C2.31817259,15.503 3.95681218,16.908 5.67206091,16.908 C8.43496447,16.908 9.9920203,14.598 9.9920203,11.59 L9.9920203,11.59 Z"></path>
                            <path d="M13.2394518,17.809 L13.2394518,0.665 L14.5726497,0.665 L14.5726497,17.809 L13.2394518,17.809 L13.2394518,17.809 Z"></path>
                            <path d="M29.5084467,21.434 C29.792,21.562 30.2775228,21.641 30.5859492,21.641 C31.398802,21.641 31.9678985,21.305 32.4753096,20.123 L33.4483452,17.912 L28.2041015,5.398 L29.6885279,5.398 L34.1875736,16.243 L38.6428426,5.398 L40.1491574,5.398 L33.751797,20.537 C33.0891777,22.098 32.0445076,22.848 30.6098274,22.848 C30.1790254,22.848 29.6129137,22.77 29.2796142,22.668 L29.5084467,21.434 L29.5084467,21.434 Z"></path>
                            <path d="M25.6192893,17.771 C25.5297462,17.339 25.4640812,16.961 25.4153299,16.644 C25.3745381,16.33 25.3526497,16.004 25.3526497,15.676 C24.8959797,16.35 24.2492792,16.91 23.4244873,17.352 C22.5977056,17.795 21.8127107,18.014 20.7342132,18.014 C19.4378274,18.014 18.4329543,17.695 17.7126294,17.043 C16.9962843,16.393 16.6361218,15.512 16.6361218,14.398 C16.6361218,13.284 17.1584569,12.381 18.1981523,11.693 C19.2388426,10.998 20.5829848,10.655 22.2474924,10.655 L25.3526497,10.655 L25.3526497,9.111 C25.3526497,8.221 25.0501929,7.525 24.4492589,7.017 C23.846335,6.51 22.9986599,6.255 21.900264,6.255 C20.8953909,6.255 20.0815431,6.488 19.4627005,6.944 C18.8488325,7.41 18.5384162,7.986 18.5384162,8.681 L17.1753706,8.681 L17.1495025,8.615 C17.0997563,7.677 17.5255838,6.855 18.4339492,6.146 C19.3343553,5.435 20.5203046,5.08 21.9768731,5.08 C23.4254822,5.08 24.6014822,5.432 25.4869645,6.131 C26.3714518,6.824 26.8141929,7.828 26.8141929,9.139 L26.8141929,15.261 C26.8141929,15.7 26.8350863,16.125 26.8898071,16.539 C26.9475127,16.954 27.035066,17.367 27.1564467,17.768 L25.6192893,17.771 L25.6192893,17.771 Z M20.8953909,16.797 C22.0266193,16.797 22.8384772,16.543 23.6702335,16.04 C24.4940305,15.541 25.0571574,14.891 25.3506599,14.102 L25.3506599,11.718 L22.2305787,11.718 C21.0386599,11.718 20.0536853,11.984 19.2756548,12.518 C18.4986193,13.051 18.1026396,13.697 18.1026396,14.448 C18.1026396,15.156 18.3533604,15.72 18.8488325,16.149 C19.3482843,16.582 20.0288122,16.797 20.8953909,16.797 L20.8953909,16.797 Z"></path>
                        </g>
                    </g>
                    <g transform="translate(49.746193, 8.000000)" id="Shape" fill="#FFFFFF">
                        <path d="M0.117401015,4.601 C0.117401015,1.967 2.06546193,0.272 4.4871066,0.272 C6.10982741,0.272 7.17141117,1.05 7.83204061,2.003 L6.64708629,2.693 C6.19738071,2.067 5.41039594,1.577 4.4871066,1.577 C2.83951269,1.577 1.61575635,2.832 1.61575635,4.6 C1.61575635,6.345 2.83951269,7.624 4.4871066,7.624 C5.33577665,7.624 6.08395939,7.235 6.45904569,6.873 L6.45904569,5.579 L3.96278173,5.579 L3.96278173,4.287 L7.9066599,4.287 L7.9066599,7.412 C7.09579695,8.328 5.9217868,8.943 4.48611168,8.943 C2.06546193,8.943 0.117401015,7.224 0.117401015,4.601 L0.117401015,4.601 Z"></path>
                        <path d="M9.71443655,8.78 L9.71443655,0.41 L15.4193299,0.41 L15.4193299,1.702 L11.1749848,1.702 L11.1749848,3.86 L15.3317766,3.86 L15.3317766,5.152 L11.1749848,5.152 L11.1749848,7.486 L15.4193299,7.486 L15.4193299,8.779 L9.71443655,8.78 L9.71443655,8.78 Z"></path>
                        <path d="M19.4607107,8.78 L19.4607107,1.703 L16.9395736,1.703 L16.9395736,0.411 L23.4423959,0.411 L23.4423959,1.703 L20.9212589,1.703 L20.9212589,8.78 L19.4607107,8.78 L19.4607107,8.78 Z"></path>
                        <path d="M28.5184975,8.78 L28.5184975,0.41 L29.9790457,0.41 L29.9790457,8.78 L28.5184975,8.78 L28.5184975,8.78 Z"></path>
                        <path d="M34.0452995,8.78 L34.0452995,1.703 L31.5241624,1.703 L31.5241624,0.411 L38.0269848,0.411 L38.0269848,1.703 L35.5058477,1.703 L35.5058477,8.78 L34.0452995,8.78 L34.0452995,8.78 Z"></path>
                        <path d="M42.7419289,4.601 C42.7419289,2.104 44.5019492,0.272 46.9992081,0.272 C49.4825381,0.272 51.2544975,2.104 51.2544975,4.601 C51.2544975,7.098 49.4825381,8.93 46.9992081,8.93 C44.5019492,8.93 42.7419289,7.098 42.7419289,4.601 L42.7419289,4.601 Z M49.758132,4.601 C49.758132,2.871 48.6716751,1.578 47.001198,1.578 C45.315797,1.578 44.2422741,2.87 44.2422741,4.601 C44.2422741,6.321 45.315797,7.625 47.001198,7.625 C48.6716751,7.625 49.758132,6.321 49.758132,4.601 L49.758132,4.601 Z"></path>
                        <path d="M58.7651777,8.78 L54.4213401,2.795 L54.4213401,8.78 L52.9617868,8.78 L52.9617868,0.41 L54.4601421,0.41 L58.7144365,6.206 L58.7144365,0.41 L60.1769746,0.41 L60.1769746,8.78 L58.7651777,8.78 L58.7651777,8.78 Z"></path>
                    </g>
                    <g transform="translate(17.908629, 23.000000)" id="Shape">
                        <path d="M18.7861523,9.6 L2.14505584,0.403 C1.67445685,0.144 1.23768528,0.084 0.886477157,0.193 L14.516934,13.892 L18.7861523,9.6 L18.7861523,9.6 Z" fill="#878787"></path>
                        <path d="M18.8080406,18.205 L24.4880609,15.064 C25.6401827,14.424 25.6401827,13.385 24.4880609,12.75 L18.7871472,9.6 L14.516934,13.892 L18.8080406,18.205 L18.8080406,18.205 Z" fill="#878787"></path>
                        <path d="M0.885482234,0.192 C0.380060914,0.351 0.0517360406,0.867 0.0517360406,1.646 L0.0547208122,26.168 C0.0547208122,26.938 0.373096447,27.445 0.863593909,27.614 L14.516934,13.891 L0.885482234,0.192 L0.885482234,0.192 Z" fill="#878787"></path>
                        <path d="M0.863593909,27.615 C1.21878173,27.736 1.66351269,27.678 2.14505584,27.414 L18.8070457,18.205 L14.516934,13.893 L0.863593909,27.615 L0.863593909,27.615 Z" fill="#878787"></path>
                        <path d="M14.4818763,13.8925004 L18.7424278,9.60065693 L18.7414353,9.60065693 L14.4818763,13.8925004 L0.886420063,0.193 L0.885427622,0.193 L14.4818763,13.8945003 L0.863593909,27.615 L14.4818763,13.8945003 L18.7612842,18.2053431 L18.763269,18.2053431 L14.4818763,13.8925004 Z" stroke="#9B9B9B"></path>
                    </g>
                </g>
            </g>
        </g>
    </g>
</svg>